<?xml version="1.0" encoding="utf-8"?>
<!-- Generator: Adobe Illustrator 23.0.0, SVG Export Plug-In . SVG Version: 6.00 Build 0)  -->
<svg version="1.1" id="Layer_1" xmlns="http://www.w3.org/2000/svg" xmlns:xlink="http://www.w3.org/1999/xlink" x="0px" y="0px"
	 viewBox="0 0 429.5 439" style="enable-background:new 0 0 429.5 439;" xml:space="preserve">
<style type="text/css">
	.st0{opacity:0.15;}
	.st1{fill:#BDCEFA;}
	.st2{opacity:0.32;}
	.st3{fill:url(#SVGID_1_);}
	.st4{fill:#1AE5FF;}
	.st5{opacity:0.53;}
	.st6{opacity:0.37;}
	.st7{fill:#8ED2FF;}
	.st8{opacity:0.47;}
	.st9{fill:#7974F5;}
	.st10{fill:url(#SVGID_2_);}
	.st11{fill:url(#SVGID_3_);}
	.st12{fill:url(#SVGID_4_);}
	.st13{fill:url(#SVGID_5_);}
	.st14{fill:url(#SVGID_6_);}
	.st15{fill:#F9FBFC;}
	.st16{fill:#113C7A;}
	.st17{fill:#FFFFFF;}
	.st18{fill:#CFE3FF;}
	.st19{fill:url(#SVGID_7_);}
	.st20{fill:none;}
	.st21{fill:url(#SVGID_8_);}
	.st22{opacity:0.32;fill:url(#SVGID_9_);enable-background:new    ;}
	.st23{fill:#FF9D6F;}
	.st24{fill:url(#SVGID_10_);}
	.st25{fill:url(#SVGID_11_);}
	.st26{fill:#FF7C40;}
	.st27{fill:#843837;}
	.st28{opacity:0.32;fill:url(#SVGID_12_);enable-background:new    ;}
	.st29{fill:#F5B697;}
	.st30{fill:#5167B0;}
	.st31{fill:url(#SVGID_13_);}
	.st32{fill:url(#SVGID_14_);}
	.st33{opacity:0.43;fill:url(#SVGID_15_);enable-background:new    ;}
	.st34{fill:url(#SVGID_16_);}
	.st35{opacity:0.57;}
	.st36{fill:url(#SVGID_17_);}
	.st37{fill:url(#SVGID_18_);}
	.st38{fill:url(#SVGID_19_);}
	.st39{fill:url(#SVGID_20_);}
	.st40{fill:#E8F2FE;}
	.st41{fill:url(#SVGID_21_);}
	.st42{fill:url(#SVGID_22_);}
	.st43{fill:url(#SVGID_23_);}
	.st44{fill:url(#SVGID_24_);}
	.st45{fill:url(#SVGID_25_);}
	.st46{fill:#C9C9C9;}
	.st47{fill:url(#SVGID_26_);}
	.st48{fill:url(#SVGID_27_);}
	.st49{fill:url(#SVGID_28_);}
	.st50{fill:#9CE3F0;}
	.st51{fill:#39C2D1;}
	.st52{fill:#20A8AF;}
	.st53{fill:#FF9100;}
	.st54{fill:#D87600;}
	.st55{fill:#BC6200;}
	.st56{fill:#FFEC00;}
	.st57{fill:#D6C100;}
	.st58{fill:#938100;}
	.st59{fill:url(#SVGID_29_);}
	.st60{fill:#76B5CE;}
	.st61{fill:url(#SVGID_30_);}
	.st62{fill:url(#SVGID_31_);}
	.st63{fill:url(#SVGID_32_);}
	.st64{fill:url(#SVGID_33_);}
	.st65{fill:url(#SVGID_34_);}
	.st66{fill:#B8D0F6;}
	.st67{fill:#99B6E0;}
	.st68{fill:#E4F2FF;}
	.st69{fill:url(#SVGID_35_);}
	.st70{fill:url(#SVGID_36_);}
	.st71{fill:url(#SVGID_37_);}
	.st72{fill:url(#SVGID_38_);}
	.st73{fill:url(#SVGID_39_);}
	.st74{fill:url(#SVGID_40_);}
	.st75{fill:url(#SVGID_41_);}
	.st76{fill:url(#SVGID_42_);}
	.st77{fill:url(#SVGID_43_);}
	.st78{fill:url(#SVGID_44_);}
	.st79{fill:url(#SVGID_45_);}
	.st80{fill:url(#SVGID_46_);}
	.st81{fill:url(#SVGID_47_);}
	.st82{fill:url(#SVGID_48_);}
	.st83{fill:url(#SVGID_49_);}
	.st84{fill:url(#SVGID_50_);}
	.st85{fill:url(#SVGID_51_);}
	.st86{fill:url(#SVGID_52_);}
	.st87{fill:url(#SVGID_53_);}
	.st88{fill:url(#SVGID_54_);}
	.st89{fill:url(#SVGID_55_);}
	.st90{fill:url(#SVGID_56_);}
	.st91{fill:url(#SVGID_57_);}
	.st92{fill:url(#SVGID_58_);}
	.st93{fill:url(#SVGID_59_);}
	.st94{fill:url(#SVGID_60_);}
	.st95{fill:#007DC9;}
	.st96{fill:#0084E9;}
	.st97{fill:#52A3F6;}
	.st98{fill:#010400;}
	.st99{fill:#484968;}
	.st100{fill:#E28C66;}
	.st101{fill:#2D0D60;}
	.st102{fill:#F1AC85;}
	.st103{fill:url(#SVGID_61_);}
	.st104{fill:#A29AFB;}
	.st105{fill:#FFFFEB;}
	.st106{fill:#DD936F;}
	.st107{fill:#F9AB83;}
	.st108{fill:#943BBB;}
	.st109{fill:#FCC4B7;}
	.st110{fill:#293677;}
	.st111{fill:#55D1FF;}
	.st112{fill:#5258A6;}
	.st113{fill-rule:evenodd;clip-rule:evenodd;fill:#E58800;}
	.st114{fill:#1C1C38;}
	.st115{fill:#FCFDFF;}
	.st116{fill:#0382FF;}
	.st117{fill:#BBBEB5;}
	.st118{fill:#EAEEF1;}
	.st119{fill:#D13985;}
	.st120{fill:#46466C;}
	.st121{fill:#2D2D4F;}
	.st122{fill:#ED549C;}
	.st123{fill:#E5A89C;}
	.st124{fill-rule:evenodd;clip-rule:evenodd;fill:#52A3F6;}
	.st125{fill-rule:evenodd;clip-rule:evenodd;fill:#BBBEB5;}
	.st126{fill-rule:evenodd;clip-rule:evenodd;fill:#EAEEF1;}
</style>
<g>
	<g id="OBJECTS">
		<g class="st0">
			<path class="st1" d="M401.1,387.8L334.7,425c-3,1.7-8.1,1.5-11.5-0.5L301,411.3c-3.4-2-3.8-5-0.8-6.7l66.2-38
				c3-1.7,8.1-1.5,11.5,0.5l22.4,14C403.7,383.1,404.1,386.1,401.1,387.8z"/>
			<path class="st1" d="M373.5,355.2L307,392.5c-3,1.7-8.1,1.5-11.5-0.5l-22.1-13.2c-3.4-2-3.8-5-0.8-6.7l66.2-38
				c3-1.7,8.1-1.5,11.5,0.5l22.4,13.9C376,350.5,376.4,353.5,373.5,355.2z"/>
			<path class="st1" d="M389.4,300.3L188.8,412.2c-8.9,5.1-24.6,4.5-34.8-1.4L37.1,343.3c-10.3-5.9-11.4-15-2.5-20.1l200.6-111.9
				c8.9-5.1,24.5-4.5,34.8,1.4l116.9,67.5C397.1,286.1,398.3,295.2,389.4,300.3z"/>
		</g>
		<g class="st2">
			
				<linearGradient id="SVGID_1_" gradientUnits="userSpaceOnUse" x1="-834.0438" y1="288.17" x2="-772.9763" y2="288.17" gradientTransform="matrix(-1 0 0 -1 -439.17 470.67)">
				<stop  offset="0" style="stop-color:#5155D4"/>
				<stop  offset="1" style="stop-color:#45F7FF"/>
			</linearGradient>
			<path class="st3" d="M334.8,170.8c-1.3,0.8-1.3,2,0,2.8l44,25.6c1.5,0.8,3.3,0.8,4.8,0l10.3-4.8c1.3-0.8,1.3-2,0-2.8l-44-25.6
				c-1.5-0.8-3.3-0.8-4.8,0L334.8,170.8z"/>
		</g>
		<path class="st4" d="M322.7,64v1.1c0,0.5,0.4,0.8,0.9,0.8c0.1,0,0.3,0,0.4-0.1l5.2-3c0.3-0.2,0.4-0.4,0.4-0.7V61
			c0-0.5-0.4-0.8-0.8-0.8c-0.1,0-0.3,0-0.4,0.1l-5.2,3C322.9,63.4,322.7,63.7,322.7,64z"/>
		<path class="st4" d="M306.3,78.9V80c0,0.5,0.4,0.8,0.8,0.8c0.1,0,0.3,0,0.4-0.1l21.6-12.4c0.3-0.2,0.4-0.4,0.4-0.7v-1.1
			c0-0.5-0.4-0.9-0.8-0.9c-0.1,0-0.3,0-0.4,0.1l-21.6,12.4C306.4,78.3,306.3,78.6,306.3,78.9z"/>
		<g class="st5">
			<path class="st4" d="M315.3,84.7v1.1c0,0.5,0.4,0.8,0.8,0.8c0.1,0,0.3,0,0.4-0.1l12.7-7.3c0.3-0.2,0.4-0.4,0.4-0.7v-1.1
				c0-0.5-0.4-0.8-0.8-0.8c-0.1,0-0.3,0-0.4,0.1l-12.7,7.3C315.4,84.1,315.3,84.4,315.3,84.7z"/>
		</g>
		<path class="st4" d="M309.7,82.4v1.1c0,0.5,0.4,0.8,0.8,0.8c0.1,0,0.3,0,0.4-0.1l18.2-10.5c0.3-0.2,0.4-0.4,0.4-0.7v-1.1
			c0-0.5-0.4-0.8-0.8-0.8c-0.1,0-0.3,0-0.4,0.1l-18.2,10.5C309.8,81.8,309.7,82.1,309.7,82.4z"/>
		<g class="st6">
			<path class="st7" d="M422.5,80.6c0.2,0.2,0.4,0.4,0.4,0.7v7.5c0,0.3-0.2,0.4-0.4,0.2l-9.5-5.5c-0.2-0.2-0.4-0.4-0.4-0.8v-7.5
				c0-0.1,0.1-0.3,0.2-0.3c0.1,0,0.1,0,0.2,0.1L422.5,80.6z"/>
		</g>
		<g class="st8">
			<path class="st9" d="M425.9,93.9c0.3,0.2,0.4,0.4,0.4,0.7v7.5c0,0.3-0.2,0.4-0.4,0.3l-9.5-5.5c-0.2-0.2-0.4-0.4-0.4-0.8v-7.5
				c0-0.3,0.2-0.4,0.4-0.3L425.9,93.9z"/>
		</g>
		<g class="st6">
			<path class="st7" d="M329.7,100.9c0.2,0.1,0.3,0.3,0.3,0.5v4.8c0,0.2-0.1,0.3-0.3,0.2l-6.1-3.5c-0.2-0.1-0.3-0.3-0.3-0.5v-4.8
				c0-0.2,0.1-0.3,0.3-0.2L329.7,100.9z"/>
		</g>
		<g class="st8">
			<path class="st9" d="M331.9,109.5c0.2,0.1,0.3,0.3,0.3,0.5v4.8c0,0.2-0.1,0.3-0.3,0.2l-6.1-3.5c-0.2-0.1-0.3-0.3-0.3-0.5v-4.8
				c0-0.2,0.1-0.3,0.3-0.2L331.9,109.5z"/>
		</g>
		
			<linearGradient id="SVGID_2_" gradientUnits="userSpaceOnUse" x1="390.6299" y1="417.82" x2="455.7699" y2="417.82" gradientTransform="matrix(1 0 0 -1 -48.71 470.67)">
			<stop  offset="0" style="stop-color:#7F5EFF"/>
			<stop  offset="0.24" style="stop-color:#8665FF"/>
			<stop  offset="0.6" style="stop-color:#9978FF"/>
			<stop  offset="0.94" style="stop-color:#B391FF"/>
		</linearGradient>
		<path class="st10" d="M394.4,59.9l0.1,0.1c0.3,0.2,0.6,0.5,0.9,0.8l0.1,0.1c0.3,0.3,0.6,0.6,0.8,0.8l0.1,0.1
			c0.3,0.3,0.6,0.6,0.9,1l0,0c0.3,0.3,0.6,0.7,0.8,1.1l0,0c0.2,0.3,0.5,0.7,0.7,1s0.3,0.4,0.4,0.7l0.3,0.5l0.1,0.3
			c0.2,0.3,0.4,0.6,0.5,0.9v0.1c0.2,0.4,0.4,0.8,0.6,1.2v0.1c1.1,2.4,1.6,4.9,1.7,7.5l4.5-2.6c0-2.3-0.5-4.5-1.4-6.6l0,0
			c-0.1-0.2-0.1-0.3-0.2-0.5c0-0.1-0.1-0.2-0.2-0.3v-0.1v-0.1c-0.1-0.2-0.1-0.3-0.2-0.5l-0.3-0.5c0,0,0-0.1,0-0.1c0,0,0-0.1,0-0.1
			l-0.2-0.4l-0.3-0.5l-0.1-0.3l-0.1-0.1l-0.3-0.4c-0.1-0.2-0.3-0.4-0.4-0.7l-0.1-0.1c-0.2-0.3-0.4-0.6-0.6-0.9l0,0l-0.5-0.6
			l-0.4-0.5l0,0l-0.4-0.5l-0.4-0.4l-0.1-0.1l-0.1-0.1l-0.3-0.3l-0.4-0.4l-0.1-0.1l-0.1-0.1l-0.2-0.2c-0.2-0.1-0.3-0.3-0.5-0.4
			l-0.2-0.2l-0.1-0.1l-0.1-0.1l-0.4-0.3l-0.3-0.2l-0.1-0.1c0,0,0,0,0,0l-0.4-0.3L397,56l-0.1-0.1l-43.3-25l-0.3-0.2l-0.4-0.2
			l-0.3-0.1h-0.1h-0.1l-0.4-0.2l-0.4-0.2h-0.1h-0.1l-0.2-0.3l-0.4-0.1l-0.2,0h-0.1h-0.1l-0.5-0.1h-0.3h-1.2c-0.2,0-0.4,0-0.6,0.1
			l0,0h-0.1c-0.2,0-0.4,0.1-0.6,0.2h-0.1h-0.1c-0.2,0.1-0.4,0.2-0.7,0.3l-4.5,2.6c0.2-0.1,0.4-0.2,0.7-0.3h0.1
			c0.2-0.1,0.4-0.1,0.6-0.2h0.1c0.3,0,0.5-0.1,0.8-0.1h0.1c0.3,0,0.5,0,0.8,0h0.1c0.3,0,0.6,0.1,0.8,0.1h0.1
			c0.3,0.1,0.6,0.1,0.9,0.3h0.1c0.3,0.1,0.7,0.2,1,0.4h0.1c0.3,0.2,0.7,0.3,1,0.5l43.3,25c0.4,0.2,0.7,0.4,1,0.7h0.1
			C393.8,59.4,394.1,59.7,394.4,59.9z"/>
		
			<linearGradient id="SVGID_3_" gradientUnits="userSpaceOnUse" x1="451.85" y1="278.79" x2="451.85" y2="390.75" gradientTransform="matrix(1 0 0 -1 -48.71 470.67)">
			<stop  offset="0" style="stop-color:#5745FF"/>
			<stop  offset="0.19" style="stop-color:#5E49FF"/>
			<stop  offset="0.46" style="stop-color:#7253FF"/>
			<stop  offset="0.78" style="stop-color:#9164FF"/>
			<stop  offset="0.94" style="stop-color:#A46EFF"/>
		</linearGradient>
		<path class="st11" d="M407,73v-0.5c0-0.2,0-0.3,0-0.5s0-0.3,0-0.5s0-0.3-0.1-0.5l-0.1-0.5c0-0.2-0.1-0.4-0.1-0.5l-0.1-0.5
			c0-0.2-0.1-0.4-0.1-0.5s-0.1-0.4-0.2-0.5s-0.1-0.3-0.2-0.5l-0.2-0.5c-0.1-0.2-0.1-0.3-0.2-0.5l-4.5,2.6c0.1,0.2,0.1,0.3,0.2,0.5
			l0.2,0.5l0.2,0.5l0.1,0.5c0,0.2,0.1,0.4,0.1,0.5s0.1,0.3,0.1,0.5s0.1,0.3,0.1,0.5c0,0.2,0.1,0.3,0.1,0.5c0,0.2,0,0.3,0.1,0.5
			s0,0.3,0,0.5s0,0.3,0,0.5s0,0.3,0,0.5s0,0.3,0,0.5l-0.3,103.9c0,0.4,0,0.8-0.1,1.1c0,0,0,0.1,0,0.1c0,0.3-0.1,0.6-0.1,0.9
			c0,0,0,0.1,0,0.1c-0.1,0.3-0.1,0.6-0.2,0.8c0,0.1,0,0.1,0,0.1c-0.1,0.2-0.2,0.5-0.3,0.7v0.1c-0.1,0.3-0.3,0.5-0.4,0.7l-0.1,0.1
			c-0.1,0.2-0.3,0.4-0.4,0.5l-0.1,0.2c-0.1,0.1-0.2,0.3-0.4,0.4l-0.2,0.1c-0.2,0.2-0.4,0.3-0.6,0.4l4.5-2.6c0.2-0.1,0.4-0.3,0.6-0.4
			l0.2-0.1c0.1-0.1,0.3-0.2,0.4-0.4l0.2-0.2c0.1-0.2,0.3-0.3,0.4-0.5l0.1-0.1l0,0c0.1-0.2,0.3-0.5,0.4-0.7l0,0v-0.1
			c0.1-0.1,0.1-0.3,0.2-0.5l0.1-0.3c0-0.1,0-0.1,0-0.1c0-0.1,0-0.1,0-0.1s0.1-0.3,0.1-0.5v-0.2v-0.1v-0.2c0-0.2,0.1-0.3,0.1-0.5
			v-0.3c0,0,0-0.1,0-0.1c0,0,0-0.1,0-0.1v-0.5c0-0.2,0-0.3,0-0.5l0,0l0.3-103.9L407,73z"/>
		
			<linearGradient id="SVGID_4_" gradientUnits="userSpaceOnUse" x1="439.1316" y1="246.9303" x2="414.2516" y2="389.7303" gradientTransform="matrix(1 0 0 -1 -48.71 470.67)">
			<stop  offset="0" style="stop-color:#7F5EFF"/>
			<stop  offset="0.24" style="stop-color:#8665FF"/>
			<stop  offset="0.6" style="stop-color:#9978FF"/>
			<stop  offset="0.94" style="stop-color:#B391FF"/>
		</linearGradient>
		<path class="st12" d="M392.4,58.5c5.6,3.2,10.1,11.1,10.1,17.5l-0.3,103.9c0,6.4-4.6,9-10.2,5.8l-43.3-25
			c-5.6-3.2-10.1-11.1-10.1-17.5l0.3-103.9c0-6.4,4.6-9,10.2-5.8L392.4,58.5z"/>
		
			<linearGradient id="SVGID_5_" gradientUnits="userSpaceOnUse" x1="419.525" y1="405.61" x2="419.525" y2="397.47" gradientTransform="matrix(1 0 0 -1 -48.71 470.67)">
			<stop  offset="0" style="stop-color:#7F5EFF"/>
			<stop  offset="0.24" style="stop-color:#8665FF"/>
			<stop  offset="0.6" style="stop-color:#9978FF"/>
			<stop  offset="0.94" style="stop-color:#B391FF"/>
		</linearGradient>
		<path class="st13" d="M376.4,59.3c0.7,0.5,1.2,1.3,1.2,2.1c0,0.8-0.5,1.1-1.2,0.7l-11.2-6.5c-0.7-0.5-1.2-1.3-1.2-2.1
			c0-0.8,0.5-1.1,1.2-0.7L376.4,59.3z"/>
		
			<linearGradient id="SVGID_6_" gradientUnits="userSpaceOnUse" x1="419.2183" y1="287.36" x2="419.2183" y2="321.42" gradientTransform="matrix(1 0 0 -1 -48.7034 470.6661)">
			<stop  offset="0" style="stop-color:#9A79FF"/>
			<stop  offset="0.94" style="stop-color:#B391FF"/>
		</linearGradient>
		<path class="st14" d="M368.2,158c1.3-0.7,3.4,0.5,4.7,2.7c1.3,2.2,1.3,4.6,0,5.4c-1.3,0.7-3.4-0.5-4.7-2.7
			C366.9,161.2,366.9,158.8,368.2,158z"/>
		<path class="st15" d="M398,80.9c0.6,0.4,1,1,1,1.8l-0.3,86.8c0,0.6-0.5,0.9-1,0.6l-54.5-31.4c-0.6-0.4-1-1-1-1.8l0.3-86.8
			c0-0.6,0.5-0.9,1-0.6L398,80.9z"/>
		<path class="st15" d="M404.8,111.1L404.8,111.1c-0.4,0-0.6-0.3-0.6-0.6v0V91.1c0-0.4,0.3-0.6,0.6-0.6l0,0l0,0
			c0.4,0,0.6,0.3,0.6,0.6v19.3C405.5,110.8,405.2,111.1,404.8,111.1z"/>
		<path class="st15" d="M404.8,135.1L404.8,135.1c-0.4,0-0.6-0.3-0.6-0.6v-19.3c0-0.4,0.3-0.6,0.6-0.6l0,0c0.4,0,0.6,0.3,0.6,0.6
			v19.3C405.5,134.8,405.2,135.1,404.8,135.1z"/>
		<path class="st16" d="M404.8,164.6L404.8,164.6c-0.4,0-0.6-0.3-0.6-0.6v0v-10c0-0.4,0.3-0.6,0.6-0.6l0,0l0,0
			c0.4,0,0.6,0.3,0.6,0.6v10C405.5,164.3,405.2,164.6,404.8,164.6C404.8,164.6,404.8,164.6,404.8,164.6z"/>
		<path class="st17" d="M370.2,87c3,1.9,4.9,5.2,5.1,8.7v0.1c-1.7,0.6-3.6,0.3-5.2-0.6H370c-1.9-1.3-3.5-2.9-4.7-4.8L365,90
			C365.1,86.7,367.3,85.4,370.2,87z"/>
		<path class="st18" d="M393.1,115c0.7,0.4,1.1,1.2,1.2,2v4.9c0,0.7-0.5,1-1.2,0.7l-44.8-25.8c-0.7-0.4-1.1-1.2-1.2-2v-4.9
			c0-0.7,0.5-1,1.2-0.7L393.1,115z"/>
		
			<linearGradient id="SVGID_7_" gradientUnits="userSpaceOnUse" x1="412.0444" y1="400.5269" x2="426.5144" y2="370.947" gradientTransform="matrix(1 0 0 -1 -48.71 470.67)">
			<stop  offset="0" style="stop-color:#9A79FF"/>
			<stop  offset="0.34" style="stop-color:#BA76E8"/>
			<stop  offset="0.94" style="stop-color:#FB6FB9"/>
		</linearGradient>
		<path class="st19" d="M377.8,85.9c0.3,0.8,0.4,1.7,0.5,2.6c0.1,0.5,0.1,1,0.1,1.5c0,0.2,0,0.3,0,0.4v0.1v0.4V91c0,0.1,0,0.3,0,0.4
			s0,0.3-0.1,0.4s-0.1,0.3-0.1,0.4v0.1l-0.1,0.3v0.1l-0.1,0.3c0,0.1-0.1,0.2-0.1,0.3l-0.2,0.3v0.1c0,0.1-0.1,0.2-0.2,0.3l0,0
			l-0.2,0.3l-0.2,0.3l0,0l-0.2,0.2l0,0l-0.2,0.2l0,0l-0.2,0.2c-0.1,0.1-0.2,0.1-0.3,0.2l0,0l-0.3,0.1H376l-0.3,0.1h-0.2
			c-0.2-3.5-2.1-6.8-5.1-8.7c-2.8-1.6-5.1-0.3-5.1,2.9l0.2,0.4l-0.2-0.3l-0.3-0.4l0-0.1c-0.1-0.1-0.2-0.3-0.3-0.4l-0.1-0.1
			c-0.1-0.1-0.2-0.3-0.3-0.4l-0.3-0.4l0-0.1l-0.2-0.4v-0.1l-0.2-0.4c-0.1-0.2-0.1-0.3-0.2-0.5v-0.1c-0.1-0.2-0.1-0.3-0.2-0.4
			s-0.1-0.3-0.2-0.5v-0.1l-0.2-0.5v-0.1c-0.1-0.3-0.2-0.6-0.3-0.9v-0.1c0-0.2-0.1-0.3-0.1-0.5v-0.1l-0.1-0.4c0-0.2-0.1-0.3-0.1-0.5
			v-0.1l-0.1-0.5c0-0.2,0-0.3,0-0.5v-0.1c0-0.2,0-0.3,0-0.4v-0.5c0-0.5,0-0.9,0.1-1.4c0.1-0.7,0.3-1.4,0.6-2l0.2-0.3
			c1.4-2.4,4.2-3,7.5-1.1c3.2,2,5.7,5,7.1,8.6c0.1,0.2,0.2,0.5,0.3,0.7S377.7,85.5,377.8,85.9z M370.3,86.1c1.7,1,3.1,0.2,3.1-1.8
			c-0.1-2.2-1.3-4.2-3.1-5.4c-1.7-1-3.1-0.2-3.1,1.8C367.3,83,368.4,85,370.3,86.1"/>
		<path class="st20" d="M377.8,85.9c0.3,0.8,0.4,1.7,0.5,2.6c0.1,0.5,0.1,1,0.1,1.5c0,0.2,0,0.3,0,0.4v0.1v0.4V91c0,0.1,0,0.3,0,0.4
			s0,0.3-0.1,0.4s-0.1,0.3-0.1,0.4v0.1l-0.1,0.3v0.1l-0.1,0.3c0,0.1-0.1,0.2-0.1,0.3l-0.2,0.3v0.1c0,0.1-0.1,0.2-0.2,0.3l0,0
			l-0.2,0.3l-0.2,0.3l0,0l-0.2,0.2l0,0l-0.2,0.2l0,0l-0.2,0.2c-0.1,0.1-0.2,0.1-0.3,0.2l0,0l-0.3,0.1H376l-0.3,0.1h-0.2
			c-0.2-3.5-2.1-6.8-5.1-8.7c-2.8-1.6-5.1-0.3-5.1,2.9l0.2,0.4l-0.2-0.3l-0.3-0.4l0-0.1c-0.1-0.1-0.2-0.3-0.3-0.4l-0.1-0.1
			c-0.1-0.1-0.2-0.3-0.3-0.4l-0.3-0.4l0-0.1l-0.2-0.4v-0.1l-0.2-0.4c-0.1-0.2-0.1-0.3-0.2-0.5v-0.1c-0.1-0.2-0.1-0.3-0.2-0.4
			s-0.1-0.3-0.2-0.5v-0.1l-0.2-0.5v-0.1c-0.1-0.3-0.2-0.6-0.3-0.9v-0.1c0-0.2-0.1-0.3-0.1-0.5v-0.1l-0.1-0.4c0-0.2-0.1-0.3-0.1-0.5
			v-0.1l-0.1-0.5c0-0.2,0-0.3,0-0.5v-0.1c0-0.2,0-0.3,0-0.4v-0.5c0-0.5,0-0.9,0.1-1.4c0.1-0.7,0.3-1.4,0.6-2l0.2-0.3
			c1.4-2.4,4.2-3,7.5-1.1c3.2,2,5.7,5,7.1,8.6c0.1,0.2,0.2,0.5,0.3,0.7S377.7,85.5,377.8,85.9z M370.3,86.1c1.7,1,3.1,0.2,3.1-1.8
			c-0.1-2.2-1.3-4.2-3.1-5.4c-1.7-1-3.1-0.2-3.1,1.8C367.3,83,368.4,85,370.3,86.1"/>
		<path class="st17" d="M370.3,79c1.8,1.2,3,3.2,3.1,5.4c0,2-1.4,2.8-3.1,1.8c-1.8-1.2-3-3.2-3.1-5.4C367.2,78.8,368.6,78,370.3,79z
			"/>
		<path class="st18" d="M393.1,125.7c0.7,0.4,1.1,1.2,1.2,2v4.9c0,0.7-0.5,1-1.2,0.7l-44.8-25.8c-0.7-0.4-1.1-1.2-1.2-2v-4.9
			c0-0.7,0.5-1,1.2-0.7L393.1,125.7z"/>
		
			<linearGradient id="SVGID_8_" gradientUnits="userSpaceOnUse" x1="417.045" y1="352.97" x2="417.045" y2="322.07" gradientTransform="matrix(1 0 0 -1 -48.71 470.67)">
			<stop  offset="0" style="stop-color:#5155D4"/>
			<stop  offset="1" style="stop-color:#45F7FF"/>
		</linearGradient>
		<path class="st21" d="M375.6,133.6c1.6,1.1,2.7,2.8,2.8,4.8v1.1c0,1.8-1.2,2.5-2.8,1.6l-14.5-8.4c-1.6-1.1-2.7-2.8-2.8-4.8v-1.1
			c0-1.8,1.3-2.5,2.8-1.6L375.6,133.6z"/>
		
			<linearGradient id="SVGID_9_" gradientUnits="userSpaceOnUse" x1="327.91" y1="294.45" x2="360.81" y2="294.45" gradientTransform="matrix(1 0 0 -1 0 496)">
			<stop  offset="0" style="stop-color:#5155D4"/>
			<stop  offset="1" style="stop-color:#45F7FF"/>
		</linearGradient>
		<ellipse class="st22" cx="344.4" cy="201.6" rx="16.5" ry="9.8"/>
		<path class="st23" d="M361.1,135.1c0.4-0.3,0.9-0.6,1.2-1c0.3-0.3,0.6-2.2,0.3-2.3s-0.6,1.2-0.6,1.2s-0.1-3.4-0.5-3.9
			s-1.7,2-1.8,2.4l-0.4,2.2C359.3,133.7,359.8,135.1,361.1,135.1z"/>
		<path class="st16" d="M336,145c-1.5,1.5-1.8,3.8-0.8,5.7c1.8,3.1,14.1-4.6,15.4-5.7s9.9-8.8,10.4-9.8s-0.6-2-1.9-1.8
			s-6.5,5.7-10.6,8.4C348.5,141.7,338.8,143.9,336,145z"/>
		<path class="st16" d="M337.5,199.4c-0.1,0.7-0.1,1.5,0.1,2.2c0.5,0.7,1.5,0.9,2.2,0.4c0.7-0.6,1.5-1.3,2.1-2c0,0,2.3-1.2,2.5-1.8
			s-0.6-1.2-1.2-1s-2.5,1.3-3.3,1.3S337.8,198.7,337.5,199.4z"/>
		
			<linearGradient id="SVGID_10_" gradientUnits="userSpaceOnUse" x1="388.6114" y1="302.4698" x2="384.4214" y2="269.8898" gradientTransform="matrix(1 0 0 -1 -48.71 470.67)">
			<stop  offset="0" style="stop-color:#6851F5"/>
			<stop  offset="1" style="stop-color:#00CFFF"/>
		</linearGradient>
		<path class="st24" d="M335.2,166.4c0,0,2,32.5,2.2,33.5s2.8,1.5,3.3,0c0.3-0.9,1-31.1,1-31.1L335.2,166.4z"/>
		<path class="st16" d="M344.1,201.4c-0.1,0.1-0.2,0.2-0.2,0.4c0,0.6,0.1,1.2,0.3,1.8c0.6,0.7,1.6,0.9,2.5,0.5
			c0.9-0.5,3.7-2.6,4.3-3.1c0.3-0.2,0.5-0.5,0.6-0.9c0.1-0.2-0.1-0.5-0.3-0.6c-0.5-0.3-1.1-0.3-1.7-0.2c-0.9,0.3-2.1,1.3-3.4,1.3
			C345.4,200.6,344.6,200.9,344.1,201.4z"/>
		
			<linearGradient id="SVGID_11_" gradientUnits="userSpaceOnUse" x1="386.4561" y1="286.663" x2="397.12" y2="286.663" gradientTransform="matrix(1 0 0 -1 -48.71 470.67)">
			<stop  offset="0" style="stop-color:#6851F5"/>
			<stop  offset="1" style="stop-color:#00CFFF"/>
		</linearGradient>
		<path class="st25" d="M348.4,166.8c-0.1-1.4-1.8-1.8-3.3-1.3c-2.8-0.1-7.2,0-7.4,2.2c-0.1,2.7,0.9,5.3,2.8,7.2
			c1,1.3,1.7,2.9,2.1,4.5c0.3,8.6,0.8,20.8,1.2,22c0.6,1.9,3.4,1.8,3.5,0C348,195.1,348.4,166.8,348.4,166.8z"/>
		<path class="st16" d="M348.4,167.8c-0.3,1.7-5.1,2.5-7.9,2.1s-5.8-1.8-5.7-5c0,0,0.5-7.7,0.3-9.1c-0.4-2.1-0.7-4.2-0.7-6.3
			c0-1.6,0.6-3.1,1.6-4.4c0,0,1.6-1.8,6.5-0.8c0,0,4,0.9,5.8,3.8c0,0,1.3,3.2,0.9,10S348.4,167.8,348.4,167.8z"/>
		<path class="st26" d="M338.7,140.7c0.2,1.2,0.2,2.4,0,3.6c-0.1,0.6,2.4,2.5,4.6,2c1.3-0.3,1.2-0.9,1.2-0.9c-0.6-1-0.9-2.2-0.9-3.4
			C343.7,140.1,340.1,140.3,338.7,140.7z"/>
		<path class="st23" d="M346.9,135.7c0,3.2-2.6,5.8-5.8,5.8s-5.8-2.6-5.8-5.8c0-3.2,2.6-5.8,5.8-5.8l0,0
			C344.3,129.9,346.9,132.5,346.9,135.7z"/>
		<path class="st23" d="M346.9,136.1c0,0,0.1,5.8-1.2,7s-3.2-1.1-6.3-1.8s2.5-6.9,2.5-6.9L346.9,136.1z"/>
		<path class="st23" d="M359.8,144.7c-0.2-0.8-0.3-1.6-0.4-2.4c0.2-0.2,0.9,0.8,0.9,0.8c0.1-0.9,0.3-1.8,0.7-2.6
			c0.3-0.3,1.5,1,1.7,1.7s-0.7,3.4-1.1,3.4S360,145.8,359.8,144.7z"/>
		<path class="st16" d="M346.6,147.4c-1.6,0.9-2.2,2.8-1.5,4.4c1.1,3.2,9.3,4.4,10.3,3.4s5.3-6,6.5-9.8c0,0-0.5-1.5-2.5-0.9
			c0,0-4.7,5.9-5.4,6.5S347.8,147.1,346.6,147.4z"/>
		<path class="st27" d="M336.1,131.2c1.3-1.4,3-2.3,4.9-2.4c3.1-0.2,4.6,0.8,5.8,0.7c1-0.1,1.9,0.6,2,1.6c0,0.3,0,0.5-0.1,0.8
			c-0.4,1.5-1.3,3-3.3,3c-0.8,0.1-1.7,0-2.5-0.3c0.9,0.4,1.6,1.2,1.8,2.1c0.1,1.2,0.2,2.3,0.2,3.5h-0.5c0,0-0.4-2.3-1.2-2.3
			s-0.8,2.5-0.1,2.9l0.7,0.4c0,0-1.4,2.5-2.1,2.6s-3.1-1.7-3.1-1.7s-4-1.9-4.4-5S336.1,131.2,336.1,131.2z"/>
		
			<linearGradient id="SVGID_12_" gradientUnits="userSpaceOnUse" x1="276.05" y1="310.65" x2="308.95" y2="310.65" gradientTransform="matrix(1 0 0 -1 0 496)">
			<stop  offset="0" style="stop-color:#5155D4"/>
			<stop  offset="1" style="stop-color:#45F7FF"/>
		</linearGradient>
		<ellipse class="st28" cx="292.5" cy="185.4" rx="16.5" ry="9.8"/>
		<path class="st29" d="M284.2,158.7c0,0,1.1,7,2,10.9c0,0,0.2,6.4,0.4,8.7s0.7,7,0.7,7c0.4,0.3,0.9,0.4,1.4,0.2
			c0,0,0.9-13.7,1.1-15.9s0.8-12.2,0.8-12.2S288.5,155.3,284.2,158.7z"/>
		<path class="st29" d="M291.1,155.9c0,0,1.1,7,2,10.9c0,0,0.2,6.4,0.4,8.7s0.7,7,0.7,7c0.4,0.3,0.9,0.4,1.4,0.2
			c0,0,0.9-13.7,1.1-15.9s0.3-12.1,0.3-12.1S295.4,152.5,291.1,155.9z"/>
		<path class="st16" d="M285.6,149.2c0,0-2.6,2.9-1.1,12.5c0.2,1.7,0.6,3.3,1,4.9c2.5,0.3,5.1-0.1,7.5-1c4-1.6,4.1-2.4,4.1-2.4
			s0.2-12.1-0.7-15.3S285.6,149.2,285.6,149.2z"/>
		<path class="st30" d="M295.6,181.9c0,0.5,0.2,1,0.6,1.3c0.9,0.6,1.7,1.3,2.4,2.2c0,0.5-1.8,0-2.5-0.5c-0.6-0.4-1.1-0.8-1.5-1.4
			v0.4c-0.2,0-0.4-0.1-0.5-0.2c-0.2-0.2,0-1.7,0-1.7L295.6,181.9z"/>
		<path class="st30" d="M288.7,185.1c0,0.5,0.2,1,0.6,1.2c0.7,0.6,2.1,1.6,2.3,2.2c0,0.5-1.8-0.1-2.5-0.5c-0.6-0.4-1.1-0.8-1.5-1.4
			l0,0.4c-0.2,0-0.4-0.1-0.5-0.2c-0.2-0.2,0-1.7,0-1.7L288.7,185.1z"/>
		
			<linearGradient id="SVGID_13_" gradientUnits="userSpaceOnUse" x1="-160.3782" y1="316.0297" x2="-153.4982" y2="352.6997" gradientTransform="matrix(-1 0 0 -1 145.21 470.67)">
			<stop  offset="0" style="stop-color:#7F5EFF"/>
			<stop  offset="0.24" style="stop-color:#8665FF"/>
			<stop  offset="0.6" style="stop-color:#9978FF"/>
			<stop  offset="0.94" style="stop-color:#B391FF"/>
		</linearGradient>
		<path class="st31" d="M295.5,130.9c0,0,2.4,0.4,3.9,5.6c0.9,3.4,2.3,3.8,3.8,4.1s8.1,0,8.6,0s1.1,1.1,0.4,2s-9.7,1.6-11.5,1.6
			s-5.8-3.3-7.5-6S293.3,130.7,295.5,130.9z"/>
		<path class="st16" d="M294.4,117.9c0,0,2.4,3.1,1.9,6.5s-3.5,3.3-4,5.1s1.5,4.6-1.2,6.3s-3.9,1.4-4.7,5.1s-3.3,5.7-7.8,6.1
			s-7.5-5-6.4-8.9s5.1-2.7,5.9-5.9s0.5-5.8,3.3-7s1.8-6,4.6-7.4S292.3,115.5,294.4,117.9z"/>
		
			<linearGradient id="SVGID_14_" gradientUnits="userSpaceOnUse" x1="-149.7511" y1="320.2005" x2="-135.8311" y2="347.8806" gradientTransform="matrix(-1 0 0 -1 145.21 470.67)">
			<stop  offset="0" style="stop-color:#7F5EFF"/>
			<stop  offset="0.24" style="stop-color:#8665FF"/>
			<stop  offset="0.6" style="stop-color:#9978FF"/>
			<stop  offset="0.94" style="stop-color:#B391FF"/>
		</linearGradient>
		<path class="st32" d="M288.1,129.8c0,0-5.1,3.7-5.6,4.9s-1.2,5,0.4,6.9c2.9,3.2,1.1,8.8,1.5,10.4s4.3,1.8,7,1.3s5.2-1.9,5.1-5.1
			c0.1-3,0.4-6,0.9-8.9c0.2-2.5-0.1-5-0.7-7.4c-0.1-0.5-1.8-1-1.8-1S293.2,129.6,288.1,129.8z"/>
		<path class="st26" d="M292.6,129.1c0,0.1,0,0.1,0,0.2c0.1,0.4,0.2,1.3,0.3,1.7s-0.4,1-1.4,1s-2.8-0.4-3.4-1.7c0-1.2,0-2.4-0.2-3.6
			L292.6,129.1z"/>
		<path class="st23" d="M295.5,122.2c-0.6-3-2.9-4.6-5.6-4c-1.8,0.2-3.3,1.3-4.2,2.8c-1.3,2.5,0.6,4.7,1.8,6l1.1,1.2
			c0.1,0.1,0.2,0.2,0.3,0.3l0,0l0,0c0.7,0.7,1.5,1.2,2.5,1.5c1.1,0.4,2.4,0.1,3.3-0.6C295.5,128.7,296,125.2,295.5,122.2z"/>
		<path class="st16" d="M296,124.2c-1.2,0.1-2.5-0.4-3.4-1.2c-1.3-1.4-3,0-4.5-1.2c0.4,1,0.4,2.1,0,3.1c-0.4,1.3-0.7,2.6-0.8,3.9
			l-2.7-4.3v-3.7l3.4-3.2l4.6-0.2l2.2,2.1C294.8,119.5,296.2,122.7,296,124.2z"/>
		
			<linearGradient id="SVGID_15_" gradientUnits="userSpaceOnUse" x1="-151.36" y1="325.1341" x2="-138.78" y2="325.1341" gradientTransform="matrix(-1 0 0 -1 145.21 470.67)">
			<stop  offset="0" style="stop-color:#FF4F00"/>
			<stop  offset="1" style="stop-color:#FF3D9D"/>
		</linearGradient>
		<path class="st33" d="M284.1,142.3l6.4,2l6-1.7c-0.1,0.3-1.7,5.1-5.1,6c-2.5,0.6-5.4-1.6-6.8-2.8c-0.1-0.9-0.3-1.8-0.6-2.6
			L284.1,142.3z"/>
		
			<linearGradient id="SVGID_16_" gradientUnits="userSpaceOnUse" x1="-145.7406" y1="346.3705" x2="-145.3906" y2="323.6305" gradientTransform="matrix(-1 0 0 -1 145.21 470.67)">
			<stop  offset="0" style="stop-color:#7F5EFF"/>
			<stop  offset="0.24" style="stop-color:#8665FF"/>
			<stop  offset="0.6" style="stop-color:#9978FF"/>
			<stop  offset="0.94" style="stop-color:#B391FF"/>
		</linearGradient>
		<path class="st34" d="M284.4,136.3c0,0-3.4-0.8-2,3.8s6.3,8.1,8.1,7.9s8.9-7.8,8.9-8.7c0-0.7-0.6-1.4-1.3-1.4c-0.1,0-0.2,0-0.4,0
			c-0.8,0.2-6.3,6.1-6.8,5.9S287.2,138.2,284.4,136.3z"/>
		<path class="st23" d="M298.5,139.6c-0.5-0.1-0.9-0.7-0.7-1.2c0,0,0-0.1,0-0.1c0.3-1,2.2-1.8,2.5-1.9s3.1,0.5,3.2,0.9
			s-0.5,0.5-1.2,0.4c-0.6-0.1-1.1-0.2-1.7-0.2c0,0,0.7,0.8,0.7,1.1c-0.1,0.6-0.5,1-1,1.3c-0.6,0.3-1.3-0.3-1.3-0.3L298.5,139.6z"/>
		<path class="st23" d="M311,140.7c0,0,2.3-1.9,2.4-1.6s-0.8,1.3-0.8,1.3s3-1.2,3.1-0.8s-1.6,1.6-2,1.9c-0.6,0.3-1.3,0.5-2,0.7
			C311.7,142.3,310.8,141.1,311,140.7z"/>
		<g class="st35">
			<path class="st4" d="M300.7,123.5c-0.8,0.5-1.3,1.4-1.4,2.3l0.1,31.8c0,2,1.5,2.9,3.2,1.8l18.9-10.9c0.8-0.5,1.3-1.4,1.4-2.3
				l-0.1-31.7c0-2-1.5-2.9-3.2-1.8L300.7,123.5z"/>
		</g>
		<path class="st17" d="M303.6,135c-0.2,0.2-0.4,0.4-0.4,0.7v1.7c0,0.3,0.2,0.4,0.4,0.2l15.4-8.9c0.2-0.2,0.4-0.4,0.4-0.7v-1.7
			c0-0.3-0.2-0.4-0.4-0.2L303.6,135z"/>
		<path class="st17" d="M303.6,138.7c-0.2,0.2-0.4,0.4-0.4,0.7v1.7c0,0.3,0.2,0.4,0.4,0.2l15.4-8.9c0.2-0.2,0.4-0.4,0.4-0.7V130
			c0-0.3-0.2-0.4-0.4-0.2L303.6,138.7z"/>
		<path class="st17" d="M309.7,141.4c-0.6,0.4-0.9,1-1,1.6v0.4c0,0.6,0.4,0.9,1,0.6l5-2.9c0.6-0.4,0.9-1,1-1.6v-0.4
			c0-0.6-0.4-0.8-1-0.5L309.7,141.4z"/>
		
			<linearGradient id="SVGID_17_" gradientUnits="userSpaceOnUse" x1="108.6864" y1="424.1817" x2="61.7464" y2="323.9417" gradientTransform="matrix(1 0 0 -1 -48.71 470.67)">
			<stop  offset="0" style="stop-color:#E4F2FF"/>
			<stop  offset="0.2" style="stop-color:#DCEAFE;stop-opacity:0.78"/>
			<stop  offset="0.6" style="stop-color:#CBDBFC;stop-opacity:0.37"/>
			<stop  offset="0.87" style="stop-color:#C1D2FB;stop-opacity:0.1"/>
			<stop  offset="1" style="stop-color:#BDCEFA;stop-opacity:0"/>
		</linearGradient>
		<path class="st36" d="M2.4,150c-1.3,0-2.3-1-2.4-2.3V97.5c0-0.8,0.5-1.6,1.2-2l60.3-34.8c0.4-0.2,0.8-0.3,1.2-0.3
			c1.3,0,2.3,1,2.4,2.3v50.1c0,0.8-0.5,1.6-1.2,2L3.5,149.7C3.2,149.9,2.8,150,2.4,150z"/>
		
			<linearGradient id="SVGID_18_" gradientUnits="userSpaceOnUse" x1="140.5792" y1="424.9698" x2="176.2393" y2="280.1698" gradientTransform="matrix(1 0 0 -1 -48.71 470.67)">
			<stop  offset="0" style="stop-color:#E4F2FF"/>
			<stop  offset="0.2" style="stop-color:#DCEAFE;stop-opacity:0.78"/>
			<stop  offset="0.6" style="stop-color:#CBDBFC;stop-opacity:0.37"/>
			<stop  offset="0.87" style="stop-color:#C1D2FB;stop-opacity:0.1"/>
			<stop  offset="1" style="stop-color:#BDCEFA;stop-opacity:0"/>
		</linearGradient>
		<path class="st37" d="M47.4,222.8c-2.8,0-5.1-2.3-5.1-5.1V110.5c0-1.8,1-3.5,2.5-4.4l128.9-74.4c0.8-0.4,1.6-0.7,2.5-0.7
			c2.8,0,5.1,2.3,5.1,5.1v107.2c0,1.8-1,3.5-2.5,4.4L49.9,222.1C49.2,222.6,48.3,222.8,47.4,222.8z"/>
		
			<linearGradient id="SVGID_19_" gradientUnits="userSpaceOnUse" x1="225.594" y1="495.8107" x2="224.004" y2="413.8707" gradientTransform="matrix(1 0 0 -1 -48.71 470.67)">
			<stop  offset="0" style="stop-color:#E4F2FF"/>
			<stop  offset="0.2" style="stop-color:#DCEAFE;stop-opacity:0.78"/>
			<stop  offset="0.6" style="stop-color:#CBDBFC;stop-opacity:0.37"/>
			<stop  offset="0.87" style="stop-color:#C1D2FB;stop-opacity:0.1"/>
			<stop  offset="1" style="stop-color:#BDCEFA;stop-opacity:0"/>
		</linearGradient>
		<path class="st38" d="M149,79.5c-1.2,0-2.1-0.9-2.1-2.1c0,0,0,0,0,0V32.9c0-0.7,0.4-1.4,1.1-1.8l53.4-30.8c0.3-0.2,0.6-0.3,1-0.3
			c1.2,0,2.1,0.9,2.1,2.1c0,0,0,0,0,0v44.4c0,0.8-0.4,1.4-1.1,1.8l-53.4,30.8C149.6,79.4,149.3,79.5,149,79.5z"/>
		
			<linearGradient id="SVGID_20_" gradientUnits="userSpaceOnUse" x1="109.6713" y1="327.7766" x2="95.3513" y2="221.9666" gradientTransform="matrix(1 0 0 -1 -48.71 470.67)">
			<stop  offset="0" style="stop-color:#E4F2FF"/>
			<stop  offset="0.2" style="stop-color:#DCEAFE;stop-opacity:0.78"/>
			<stop  offset="0.6" style="stop-color:#CBDBFC;stop-opacity:0.37"/>
			<stop  offset="0.87" style="stop-color:#C1D2FB;stop-opacity:0.1"/>
			<stop  offset="1" style="stop-color:#BDCEFA;stop-opacity:0"/>
		</linearGradient>
		<path class="st39" d="M24.4,256.1c-1.2,0-2.1-0.9-2.1-2.1v-44.4c0-0.7,0.4-1.4,1-1.8l53.4-30.8c0.3-0.2,0.6-0.3,1-0.3
			c1.2,0,2.1,0.9,2.1,2.1v44.4c0,0.8-0.4,1.4-1.1,1.8l-53.3,30.8C25.1,256,24.7,256.1,24.4,256.1z"/>
		<ellipse transform="matrix(0.5158 -0.8567 0.8567 0.5158 6.2399 187.9098)" class="st1" cx="169.4" cy="88.4" rx="4.8" ry="2.8"/>
		<path class="st1" d="M184.8,79.5c-0.1,2.4-1.4,4.5-3.4,5.8c-1.9,1.1-3.4,0.3-3.4-1.9c0.1-2.4,1.4-4.6,3.4-5.8
			C183.3,76.5,184.8,77.4,184.8,79.5z"/>
		<path class="st1" d="M196.9,72.5c-0.1,2.4-1.4,4.6-3.4,5.8c-1.9,1.1-3.4,0.3-3.4-1.9c0.1-2.4,1.4-4.5,3.4-5.8
			C195.3,69.6,196.9,70.4,196.9,72.5z"/>
		<path class="st1" d="M85,144c-2.2,2.5-4.8,4.6-7.7,6.2c-7,4.1-13.2,1.8-13.2-7.8c0-10,6.3-22.2,15.8-27.8
			c7.4-4.3,12.8-1.5,12.8,6.7c0,7.1-3.5,13.6-8,16.3c-2,1.1-3.4,0.8-3.6-1.7H81c-1,2.8-2.9,5.3-5.5,6.9c-2.8,1.6-4.7,0.4-4.7-3.6
			c0-6,3.8-13.6,9.9-17.1c1.5-1,3.2-1.5,5-1.7l-1.3,9.8c-0.4,3.1-0.1,4.3,1.1,3.6c1.8-1,4.1-5,4.1-10.6c0-6.4-3.6-9.2-10.1-5.4
			s-12.2,12.9-12.2,22.3c0,8.2,4.5,10.2,10.8,6.6c2.3-1.3,4.4-3.1,6.2-5.1L85,144z M81.2,126c-0.5,0.1-0.9,0.3-1.3,0.6
			c-2.8,1.6-5,6.1-5,9.8c0,1.9,0.7,2.6,2.1,1.8c1.6-0.9,3.2-4.1,3.6-7.2L81.2,126z"/>
		<path class="st1" d="M103.3,82.5l14.8,4.1c0.4,0.1,1.2-0.3,1.6-0.9l14.8-21.1L103.3,82.5z"/>
		<path class="st1" d="M113.8,86.9l-10.3,17c-0.2-0.3-0.3-0.6-0.3-0.9v-19L113.8,86.9z"/>
		<path class="st1" d="M123.1,82.3l10.4,5.2c-0.3,0.3-0.6,0.6-1,0.8l-27,15.6c-0.3,0.2-0.6,0.3-0.9,0.3l10.3-17.1l4.1,1.1
			L123.1,82.3z"/>
		<path class="st1" d="M134.6,65.9v19c0,0.4-0.1,0.8-0.3,1.2l-10.2-5.2L134.6,65.9z"/>
		<path class="st1" d="M238.1,91.5c-0.1,0-0.3-0.1-0.3-0.3V17.7l-100,57.8c-0.1,0.1-0.3,0.1-0.3-0.1s-0.1-0.3,0.1-0.3c0,0,0,0,0,0
			l100.8-58.3v74.3C238.4,91.4,238.2,91.5,238.1,91.5z"/>
		<path class="st1" d="M244.8,91.8c-0.3,0-0.5-0.2-0.5-0.5c0,0,0,0,0,0l0,0c0-0.3,0.2-0.5,0.5-0.5s0.5,0.2,0.5,0.5
			C245.3,91.6,245.1,91.8,244.8,91.8z"/>
		<path class="st1" d="M244.8,87.9c-0.3,0-0.5-0.2-0.5-0.4c0,0,0,0,0,0v-0.1c0-0.3,0.2-0.5,0.5-0.5s0.5,0.2,0.5,0.5
			C245.3,87.7,245.1,87.9,244.8,87.9z M244.8,84.1c-0.3,0-0.5-0.2-0.5-0.4c0,0,0,0,0,0v-0.1c0-0.3,0.2-0.5,0.5-0.5s0.5,0.2,0.5,0.5
			C245.3,83.8,245.1,84,244.8,84.1z M244.8,80.2c-0.3,0-0.5-0.2-0.5-0.4c0,0,0,0,0,0v-0.1c0-0.3,0.2-0.5,0.5-0.5
			c0.3,0,0.5,0.2,0.5,0.5C245.3,79.9,245.1,80.2,244.8,80.2z M244.8,76.3c-0.3,0-0.5-0.2-0.5-0.4c0,0,0,0,0,0v-0.1
			c0-0.3,0.2-0.5,0.5-0.5s0.5,0.2,0.5,0.5C245.3,76,245.1,76.3,244.8,76.3z M244.8,72.4c-0.3,0-0.5-0.2-0.5-0.4c0,0,0,0,0,0v-0.1
			c0-0.3,0.2-0.5,0.5-0.5c0.3,0,0.5,0.2,0.5,0.5C245.3,72.2,245.1,72.4,244.8,72.4z M244.8,68.6c-0.3,0-0.5-0.2-0.5-0.4c0,0,0,0,0,0
			V68c0-0.3,0.2-0.5,0.5-0.5s0.5,0.2,0.5,0.5C245.3,68.3,245.1,68.5,244.8,68.6z M244.8,64.7c-0.3,0-0.5-0.2-0.5-0.4c0,0,0,0,0,0
			v-0.1c0-0.3,0.2-0.5,0.5-0.5c0.3,0,0.5,0.2,0.5,0.5C245.3,64.4,245.1,64.6,244.8,64.7L244.8,64.7z"/>
		<path class="st1" d="M244.8,60.8c-0.2,0-0.3-0.1-0.4-0.2c0,0,0,0,0-0.1c-0.1-0.2-0.1-0.5,0.2-0.7c0,0,0,0,0,0
			c0.2-0.1,0.4-0.1,0.5,0c0.2,0.1,0.3,0.2,0.3,0.4C245.3,60.6,245.1,60.8,244.8,60.8C244.8,60.8,244.8,60.8,244.8,60.8z"/>
		<path class="st1" d="M101.7,140.7c-0.2,0-0.4-0.1-0.4-0.3c-0.1-0.2,0-0.5,0.2-0.7h0.1c0.2-0.1,0.5,0,0.7,0.2
			c0.1,0.2,0,0.5-0.2,0.6l-0.1,0.1C101.9,140.7,101.8,140.7,101.7,140.7z M105.3,138.7c-0.2,0-0.3-0.1-0.4-0.3
			c-0.1-0.2-0.1-0.5,0.2-0.7c0,0,0,0,0,0h0.1c0.2-0.1,0.5,0,0.7,0.2c0.1,0.2,0,0.5-0.2,0.6l-0.1,0.1
			C105.5,138.7,105.4,138.7,105.3,138.7L105.3,138.7z M108.9,136.7c-0.2,0-0.4-0.1-0.4-0.3c-0.1-0.2,0-0.5,0.2-0.7
			c0.3-0.1,0.6-0.1,0.7,0.2c0.1,0.2,0.1,0.5-0.1,0.7c0,0,0,0,0,0h-0.1C109.1,136.6,109,136.7,108.9,136.7z M112.5,134.7
			c-0.2,0-0.3-0.1-0.4-0.3c-0.1-0.2-0.1-0.5,0.2-0.7c0,0,0,0,0,0l0.1-0.1c0.2-0.1,0.5,0,0.7,0.2c0.1,0.2,0,0.5-0.2,0.7h-0.1
			C112.6,134.6,112.6,134.6,112.5,134.7L112.5,134.7z M116,132.7c-0.2,0-0.3-0.1-0.4-0.3c-0.1-0.2,0-0.5,0.2-0.7l0.1-0.1
			c0.2-0.1,0.5,0,0.7,0.2c0.1,0.2,0.1,0.5-0.2,0.7c0,0,0,0,0,0h-0.1C116.2,132.6,116.1,132.7,116,132.7L116,132.7z M119.6,130.7
			c-0.2,0-0.3-0.1-0.4-0.3c-0.1-0.2,0-0.5,0.2-0.7c0.3-0.1,0.6-0.1,0.7,0.2c0.1,0.2,0.1,0.5-0.1,0.7c0,0,0,0,0,0l-0.1,0.1
			C119.8,130.6,119.7,130.7,119.6,130.7L119.6,130.7z M123.2,128.7c-0.3,0-0.5-0.2-0.5-0.5c0-0.2,0.1-0.3,0.2-0.4
			c0.2-0.1,0.6-0.1,0.7,0.2c0.1,0.2,0.1,0.5-0.1,0.6c0,0,0,0,0,0l-0.1,0.1C123.4,128.6,123.3,128.7,123.2,128.7L123.2,128.7z
			 M126.8,126.7c-0.2,0-0.4-0.1-0.4-0.3c-0.1-0.2,0-0.5,0.2-0.7l0.1-0.1c0.2-0.1,0.5,0,0.7,0.2c0.1,0.2,0,0.5-0.2,0.7l0,0l-0.1,0.1
			C126.9,126.6,126.9,126.7,126.8,126.7L126.8,126.7z M130.3,124.7c-0.3,0-0.5-0.2-0.5-0.5c0-0.2,0.1-0.3,0.2-0.4h0.1
			c0.2-0.2,0.5-0.1,0.7,0.1s0.1,0.5-0.1,0.7c0,0-0.1,0-0.1,0.1l-0.1,0.1C130.5,124.7,130.4,124.7,130.3,124.7L130.3,124.7z
			 M133.9,122.7c-0.2,0-0.4-0.1-0.4-0.3c-0.1-0.2,0-0.5,0.2-0.7c0,0,0,0,0,0c0.2-0.1,0.6-0.1,0.7,0.2c0.1,0.2,0.1,0.5-0.1,0.7
			c0,0,0,0,0,0h-0.1C134.1,122.6,134,122.7,133.9,122.7L133.9,122.7z M137.5,120.7c-0.2,0-0.3-0.1-0.4-0.3c-0.1-0.2,0-0.5,0.2-0.7
			c0.3-0.1,0.6-0.1,0.7,0.2c0.1,0.2,0.1,0.5-0.1,0.6c0,0,0,0,0,0h-0.1C137.7,120.6,137.6,120.7,137.5,120.7L137.5,120.7z
			 M141.1,118.7c-0.3,0-0.5-0.2-0.5-0.5c0-0.2,0.1-0.4,0.3-0.5c0.2-0.1,0.6-0.1,0.7,0.2c0.1,0.2,0.1,0.5-0.1,0.6c0,0,0,0,0,0h-0.1
			C141.2,118.6,141.2,118.7,141.1,118.7L141.1,118.7z M144.7,116.7c-0.2,0-0.4-0.1-0.4-0.3c-0.1-0.2,0-0.5,0.2-0.7
			c0.3-0.1,0.6-0.1,0.7,0.2c0.1,0.2,0.1,0.5-0.1,0.7c0,0,0,0,0,0l-0.1,0.1C144.8,116.7,144.7,116.7,144.7,116.7L144.7,116.7z
			 M148.2,114.7c-0.2,0-0.3-0.1-0.4-0.3c-0.1-0.2,0-0.5,0.2-0.7c0,0,0,0,0,0c0.2-0.1,0.6-0.1,0.7,0.2c0.1,0.2,0.1,0.5-0.1,0.6
			c0,0,0,0,0,0l-0.1,0.1C148.4,114.7,148.3,114.7,148.2,114.7L148.2,114.7z M151.8,112.7c-0.2,0-0.4-0.1-0.4-0.3
			c-0.1-0.2-0.1-0.5,0.2-0.7c0,0,0,0,0,0c0.3-0.1,0.6-0.1,0.7,0.2c0.1,0.2,0.1,0.5-0.1,0.7c0,0,0,0,0,0H152
			C152,112.6,151.9,112.7,151.8,112.7L151.8,112.7z M155.4,110.7c-0.2,0-0.3-0.1-0.4-0.3c-0.1-0.2,0-0.5,0.2-0.7l0.1-0.1
			c0.2-0.1,0.5,0,0.7,0.2c0.1,0.2,0,0.5-0.2,0.7l-0.1,0.1C155.5,110.7,155.5,110.7,155.4,110.7L155.4,110.7z M159,108.7
			c-0.3,0-0.5-0.2-0.5-0.5c0-0.2,0.1-0.3,0.2-0.4c0.2-0.1,0.6-0.1,0.7,0.2c0.1,0.2,0.1,0.5-0.1,0.7c0,0,0,0,0,0l-0.1,0.1
			C159.1,108.7,159,108.7,159,108.7L159,108.7z M162.5,106.7c-0.2,0-0.3-0.1-0.4-0.3c-0.1-0.2,0-0.5,0.2-0.7h0.1
			c0.2-0.1,0.5,0,0.7,0.2c0,0,0,0,0,0c0.1,0.2,0,0.5-0.2,0.7h-0.1C162.7,106.7,162.6,106.7,162.5,106.7L162.5,106.7z M166.1,104.7
			c-0.3,0-0.5-0.2-0.5-0.5c0-0.2,0.1-0.3,0.2-0.4h0.1c0.2-0.1,0.5,0,0.7,0.2c0.1,0.2,0,0.5-0.2,0.6h-0.1
			C166.3,104.7,166.2,104.7,166.1,104.7L166.1,104.7z M169.7,102.7c-0.2,0-0.3-0.1-0.4-0.3c-0.1-0.2,0-0.5,0.2-0.7
			c0.2-0.1,0.6-0.1,0.7,0.2c0.1,0.2,0.1,0.5-0.1,0.6c0,0,0,0,0,0h-0.1C169.9,102.6,169.8,102.7,169.7,102.7L169.7,102.7z
			 M173.3,100.7c-0.2,0-0.4-0.1-0.4-0.3c-0.1-0.2,0-0.5,0.2-0.7c0.3-0.1,0.6-0.1,0.7,0.2c0.1,0.2,0.1,0.5-0.1,0.7c0,0,0,0,0,0h-0.1
			C173.4,100.6,173.4,100.7,173.3,100.7L173.3,100.7z M176.8,98.7c-0.2,0-0.3-0.1-0.4-0.3c-0.1-0.2-0.1-0.5,0.2-0.7c0,0,0,0,0,0
			l0.1-0.1c0.2-0.1,0.5,0,0.7,0.2c0.1,0.2,0,0.5-0.2,0.7h-0.1C177,98.6,176.9,98.7,176.8,98.7L176.8,98.7z M180.4,96.7
			c-0.3,0-0.5-0.2-0.5-0.5c0-0.2,0.1-0.4,0.3-0.4l0.1-0.1c0.2-0.1,0.5,0,0.7,0.2c0.1,0.2,0,0.5-0.2,0.7h-0.1
			C180.6,96.7,180.5,96.7,180.4,96.7L180.4,96.7z M184,94.7c-0.3,0-0.5-0.2-0.5-0.5c0-0.2,0.1-0.3,0.2-0.4c0.2-0.1,0.6-0.1,0.7,0.2
			c0.1,0.2,0.1,0.5-0.1,0.7c0,0,0,0,0,0h-0.1C184.2,94.6,184.1,94.7,184,94.7L184,94.7z M187.6,92.7c-0.2,0-0.3-0.1-0.4-0.3
			c-0.1-0.2-0.1-0.5,0.2-0.7c0,0,0,0,0,0c0.2-0.1,0.6-0.1,0.7,0.2c0.1,0.2,0.1,0.5-0.1,0.6c0,0,0,0,0,0h-0.1
			C187.7,92.6,187.7,92.7,187.6,92.7L187.6,92.7z M191.1,90.7c-0.2,0-0.4-0.1-0.4-0.3c-0.1-0.2,0-0.5,0.2-0.7h0.1
			c0.2-0.1,0.5,0,0.7,0.2c0.1,0.2,0,0.5-0.2,0.7l-0.1,0.1C191.3,90.7,191.2,90.8,191.1,90.7L191.1,90.7z M194.7,88.7
			c-0.3,0-0.5-0.2-0.5-0.5c0-0.2,0.1-0.3,0.2-0.4h0.1c0.2-0.2,0.5-0.1,0.7,0.1s0.1,0.5-0.1,0.7c0,0-0.1,0-0.1,0.1l-0.1,0.1
			C194.9,88.7,194.8,88.8,194.7,88.7L194.7,88.7z M198.3,86.7c-0.2,0-0.4-0.1-0.4-0.3c-0.1-0.2,0-0.5,0.2-0.7
			c0.3-0.1,0.6-0.1,0.7,0.2c0.1,0.2,0.1,0.5-0.1,0.6c0,0,0,0,0,0l-0.1,0.1c-0.1,0.1-0.1,0.1-0.2,0.2L198.3,86.7z M201.9,84.7
			c-0.3,0-0.5-0.2-0.5-0.5c0-0.2,0.1-0.3,0.2-0.4c0.2-0.1,0.6-0.1,0.7,0.2c0.1,0.2,0.1,0.5-0.1,0.6c0,0,0,0,0,0h-0.1
			c-0.1,0.1-0.1,0.2-0.3,0.2L201.9,84.7z M205.4,82.7c-0.3,0-0.5-0.2-0.5-0.5c0-0.2,0.1-0.4,0.3-0.4c0.2-0.1,0.6-0.1,0.7,0.2
			c0.1,0.2,0.1,0.5-0.1,0.6c0,0,0,0,0,0h-0.1c-0.1,0.1-0.1,0.2-0.2,0.2L205.4,82.7z M209,80.7c-0.2,0-0.3-0.1-0.4-0.3
			c-0.1-0.2-0.1-0.5,0.2-0.7c0,0,0,0,0,0l0.1-0.1c0.2-0.1,0.5,0,0.7,0.2c0.1,0.2,0,0.5-0.2,0.7c0,0,0,0,0,0h-0.1
			c-0.1,0.1-0.1,0.2-0.3,0.2L209,80.7z M212.6,78.7c-0.2,0-0.3-0.1-0.4-0.3c-0.1-0.2,0-0.5,0.2-0.7c0,0,0,0,0,0
			c0.2-0.1,0.6-0.1,0.7,0.2c0.1,0.2,0.1,0.5-0.1,0.6c0,0,0,0,0,0h-0.1c-0.1,0.1-0.1,0.2-0.2,0.2L212.6,78.7z M216.2,76.7
			c-0.2,0-0.4-0.1-0.4-0.3c-0.1-0.2-0.1-0.5,0.2-0.7c0,0,0,0,0,0c0.3-0.1,0.6-0.1,0.7,0.2c0.1,0.2,0.1,0.5-0.1,0.7c0,0,0,0,0,0h-0.1
			c0,0.1-0.1,0.2-0.2,0.2L216.2,76.7z M219.7,74.7c-0.2,0-0.3-0.1-0.4-0.3c-0.1-0.2,0-0.5,0.2-0.7c0.2-0.1,0.6-0.1,0.7,0.2
			c0.1,0.2,0.1,0.5-0.1,0.6c0,0,0,0,0,0H220c-0.1,0.1-0.1,0.2-0.3,0.2L219.7,74.7z M223.3,72.7c-0.3,0-0.5-0.2-0.5-0.5
			c0-0.2,0.1-0.3,0.2-0.4c0.3-0.1,0.6-0.1,0.7,0.2c0.1,0.2,0.1,0.5-0.1,0.6c0,0,0,0,0,0h-0.1c-0.1,0.1-0.1,0.2-0.3,0.2L223.3,72.7z
			 M226.9,70.7c-0.2,0-0.3-0.1-0.4-0.3c-0.1-0.2,0-0.5,0.2-0.7h0.1c0.2-0.1,0.5,0,0.7,0.2c0.1,0.2,0,0.5-0.2,0.7h-0.1
			c-0.1,0.1-0.1,0.2-0.3,0.2L226.9,70.7z M230.5,68.7c-0.2,0-0.3-0.1-0.4-0.3c-0.1-0.2,0-0.5,0.2-0.7c0.2-0.1,0.6-0.1,0.7,0.2
			c0.1,0.2,0.1,0.5-0.1,0.7c0,0,0,0,0,0h-0.1c0,0.1-0.1,0.2-0.2,0.2L230.5,68.7z M234,66.7c-0.2,0-0.3-0.1-0.4-0.3
			c-0.1-0.2,0-0.5,0.2-0.7c0.2-0.1,0.6-0.1,0.7,0.2c0.1,0.2,0.1,0.5-0.1,0.6c0,0,0,0,0,0h-0.1c0,0.1-0.1,0.2-0.3,0.3L234,66.7z
			 M237.6,64.7c-0.2,0-0.4-0.1-0.4-0.3c-0.1-0.2,0-0.5,0.2-0.7c0,0,0,0,0,0h0.1c0.2-0.1,0.5,0,0.7,0.2c0.1,0.2,0,0.5-0.2,0.7h-0.1
			c-0.1,0.1-0.1,0.2-0.2,0.2L237.6,64.7z M241.2,62.7c-0.2,0-0.3-0.1-0.4-0.3c-0.1-0.2-0.1-0.5,0.2-0.7c0,0,0,0,0,0
			c0.2-0.1,0.6-0.1,0.7,0.2c0.1,0.2,0.1,0.5-0.1,0.6c0,0,0,0,0,0h-0.1c0,0.1-0.1,0.2-0.2,0.3L241.2,62.7z"/>
		<path class="st1" d="M98.2,142.7c-0.3,0-0.5-0.2-0.5-0.5c0,0,0,0,0,0c0-0.2,0.1-0.4,0.3-0.5c0.2-0.1,0.6-0.1,0.7,0.2c0,0,0,0,0,0
			c0.1,0.2,0.1,0.5-0.1,0.6C98.5,142.6,98.3,142.7,98.2,142.7z"/>
		<path class="st1" d="M98.2,172.4c-0.3,0-0.5-0.2-0.5-0.5v-0.1c0-0.3,0.2-0.5,0.5-0.5s0.5,0.2,0.5,0.5v0.1
			C98.7,172.2,98.5,172.4,98.2,172.4z M98.2,168.2c-0.3,0-0.5-0.2-0.5-0.5v-0.1c0-0.3,0.2-0.5,0.5-0.5s0.5,0.2,0.5,0.5v0.1
			C98.7,168,98.5,168.2,98.2,168.2z M98.2,163.9c-0.3,0-0.5-0.2-0.5-0.5v-0.1c0-0.3,0.2-0.5,0.5-0.5c0.3,0,0.5,0.2,0.5,0.5v0.1
			C98.7,163.7,98.5,163.9,98.2,163.9z M98.2,159.7c-0.3,0-0.5-0.2-0.5-0.5v-0.1c0-0.3,0.2-0.5,0.5-0.5c0.3,0,0.5,0.2,0.5,0.5v0.1
			C98.7,159.5,98.5,159.7,98.2,159.7L98.2,159.7z M98.2,155.4c-0.3,0-0.5-0.2-0.5-0.5v-0.1c0-0.3,0.2-0.5,0.5-0.5
			c0.3,0,0.5,0.2,0.5,0.5v0.1C98.7,155.2,98.5,155.4,98.2,155.4L98.2,155.4z M98.2,151.2c-0.3,0-0.5-0.2-0.5-0.5v-0.1
			c0-0.3,0.2-0.5,0.5-0.5s0.5,0.2,0.5,0.5v0.1C98.7,151,98.5,151.2,98.2,151.2L98.2,151.2L98.2,151.2z M98.2,146.9
			c-0.3,0-0.5-0.2-0.5-0.5v-0.1c0-0.3,0.2-0.5,0.5-0.5s0.5,0.2,0.5,0.5v0.1C98.7,146.7,98.5,146.9,98.2,146.9L98.2,146.9L98.2,146.9
			z"/>
		<path class="st1" d="M98.2,176.7c-0.3,0-0.5-0.2-0.5-0.5c0-0.3,0.2-0.5,0.5-0.5c0.3,0,0.5,0.2,0.5,0.5c0,0,0,0,0,0v0.1
			C98.7,176.4,98.5,176.7,98.2,176.7z"/>
		<path class="st1" d="M35.6,196.4c-0.1,0-0.3-0.1-0.3-0.3v-40l0.1-0.1l23.5-12.4c0.1-0.1,0.3,0,0.3,0.1c0,0,0,0,0,0
			c0.1,0.1,0,0.3-0.1,0.3l-23.3,12.3v39.7C35.8,196.3,35.7,196.4,35.6,196.4z"/>
		<path class="st1" d="M52.4,260.7c-0.3,0-0.5-0.2-0.5-0.4c0,0,0,0,0,0v-0.1c0-0.3,0.2-0.5,0.5-0.5s0.5,0.2,0.5,0.5
			C52.9,260.4,52.7,260.6,52.4,260.7z M52.4,256.6c-0.3,0-0.5-0.2-0.5-0.5V256c0-0.3,0.2-0.5,0.5-0.5s0.5,0.2,0.5,0.5v0.1
			C52.9,256.4,52.7,256.6,52.4,256.6L52.4,256.6z M52.4,252.5c-0.3,0-0.5-0.2-0.5-0.4c0,0,0,0,0,0v-0.1c0-0.3,0.2-0.5,0.5-0.5
			s0.5,0.2,0.5,0.5C52.9,252.2,52.7,252.4,52.4,252.5L52.4,252.5z M52.4,248.4c-0.3,0-0.5-0.2-0.5-0.5v-0.1c0-0.3,0.2-0.5,0.5-0.5
			s0.5,0.2,0.5,0.5v0.1C52.9,248.2,52.7,248.4,52.4,248.4L52.4,248.4z M52.4,244.3c-0.3,0-0.5-0.2-0.5-0.4c0,0,0,0,0,0v-0.2
			c0-0.3,0.2-0.5,0.5-0.5s0.5,0.2,0.5,0.5C53,244,52.8,244.2,52.4,244.3C52.4,244.3,52.4,244.3,52.4,244.3L52.4,244.3z M52.4,240.2
			c-0.3,0-0.5-0.2-0.5-0.4c0,0,0,0,0,0v-0.1c0-0.3,0.2-0.5,0.5-0.5s0.5,0.2,0.5,0.5C52.9,239.9,52.7,240.1,52.4,240.2L52.4,240.2z
			 M52.4,236.1c-0.3,0-0.5-0.2-0.5-0.5v-0.1c0-0.3,0.2-0.5,0.5-0.5s0.5,0.2,0.5,0.5v0.1C52.9,235.9,52.7,236.1,52.4,236.1
			L52.4,236.1z M52.4,232c-0.3,0-0.5-0.2-0.5-0.4c0,0,0,0,0,0v-0.1c0-0.3,0.2-0.5,0.5-0.5s0.5,0.2,0.5,0.5
			C52.9,231.7,52.7,231.9,52.4,232L52.4,232z M52.4,227.9c-0.3,0-0.5-0.2-0.5-0.5v-0.1c0-0.3,0.2-0.5,0.5-0.5s0.5,0.2,0.5,0.5v0.1
			C52.9,227.7,52.7,227.9,52.4,227.9L52.4,227.9z M52.4,223.8c-0.3,0-0.5-0.2-0.5-0.4c0,0,0,0,0,0v-0.1c0-0.3,0.2-0.5,0.5-0.5
			s0.5,0.2,0.5,0.5C52.9,223.5,52.7,223.7,52.4,223.8L52.4,223.8z M52.4,219.7c-0.3,0-0.5-0.2-0.5-0.5v-0.1c0-0.3,0.2-0.5,0.5-0.5
			s0.5,0.2,0.5,0.5v0.1C52.9,219.5,52.7,219.7,52.4,219.7L52.4,219.7z M52.4,215.6c-0.3,0-0.5-0.2-0.5-0.5V215
			c0-0.3,0.2-0.5,0.5-0.5s0.5,0.2,0.5,0.5v0.1C52.9,215.4,52.7,215.6,52.4,215.6L52.4,215.6z M52.4,211.5c-0.3,0-0.5-0.2-0.5-0.4
			c0,0,0,0,0,0v-0.1c0-0.3,0.2-0.5,0.5-0.5s0.5,0.2,0.5,0.5C52.9,211.2,52.7,211.4,52.4,211.5L52.4,211.5z M52.4,207.5
			c-0.3,0-0.5-0.2-0.5-0.5v-0.1c0-0.3,0.2-0.5,0.5-0.5s0.5,0.2,0.5,0.5v0.1C52.9,207.2,52.7,207.4,52.4,207.5L52.4,207.5z
			 M52.4,203.4c-0.3,0-0.5-0.2-0.5-0.5v-0.2c0-0.3,0.2-0.5,0.5-0.5s0.5,0.2,0.5,0.5v0.1C53,203,52.8,203.3,52.4,203.4
			C52.5,203.3,52.5,203.3,52.4,203.4L52.4,203.4z M52.4,199.3c-0.3,0-0.5-0.2-0.5-0.5v-0.1c0-0.3,0.2-0.5,0.5-0.5s0.5,0.2,0.5,0.5
			v0.1C52.9,199,52.7,199.2,52.4,199.3L52.4,199.3z M52.4,195.2c-0.3,0-0.5-0.2-0.5-0.5v-0.1c0-0.3,0.2-0.5,0.5-0.5s0.5,0.2,0.5,0.5
			v0.1C52.9,194.9,52.7,195.1,52.4,195.2L52.4,195.2z M52.4,191c-0.3,0-0.5-0.2-0.5-0.4c0,0,0,0,0,0v-0.1c0-0.3,0.2-0.5,0.5-0.5
			s0.5,0.2,0.5,0.5C52.9,190.7,52.7,190.9,52.4,191L52.4,191z M52.4,187c-0.3,0-0.5-0.2-0.5-0.5v-0.1c0-0.3,0.2-0.5,0.5-0.5
			s0.5,0.2,0.5,0.5v0.1c-0.1,0.2-0.3,0.4-0.5,0.4V187z M52.4,182.9c-0.3,0-0.5-0.2-0.5-0.5v-0.1c0-0.3,0.2-0.5,0.5-0.5
			s0.5,0.2,0.5,0.5v0.1c-0.1,0.2-0.3,0.4-0.5,0.4V182.9z M52.4,178.8c-0.3,0-0.5-0.2-0.5-0.5v-0.1c0-0.3,0.2-0.5,0.5-0.5
			s0.5,0.2,0.5,0.5v0.1c-0.1,0.2-0.3,0.4-0.5,0.3V178.8z M52.4,174.7c-0.3,0-0.5-0.2-0.5-0.5v-0.1c0-0.3,0.2-0.5,0.5-0.5
			s0.5,0.2,0.5,0.5v0.1c-0.1,0.2-0.3,0.4-0.5,0.4V174.7z M52.4,170.6c-0.3,0-0.5-0.2-0.5-0.4c0,0,0,0,0,0V170c0-0.3,0.2-0.5,0.5-0.5
			s0.5,0.2,0.5,0.5c0,0.2-0.3,0.4-0.5,0.4V170.6z M52.4,166.6c-0.3,0-0.5-0.2-0.5-0.5V166c0-0.3,0.2-0.5,0.5-0.5s0.5,0.2,0.5,0.5
			v0.1c-0.1,0.2-0.3,0.4-0.5,0.3V166.6z M52.4,162.5c-0.3,0-0.5-0.2-0.5-0.5v-0.3c0-0.3,0.2-0.5,0.5-0.5s0.5,0.2,0.5,0.5v0.1
			c0,0.3-0.2,0.5-0.5,0.5c0,0,0,0,0,0V162.5z M52.4,158.4c-0.3,0-0.5-0.2-0.5-0.5v-0.1c0-0.3,0.2-0.5,0.5-0.5s0.5,0.2,0.5,0.5v0.1
			c-0.1,0.2-0.3,0.4-0.5,0.3V158.4z M52.4,154.3c-0.3,0-0.5-0.2-0.5-0.5v-0.1c0-0.3,0.2-0.5,0.5-0.5s0.5,0.2,0.5,0.5v0.1
			c-0.1,0.2-0.3,0.4-0.5,0.3V154.3z M52.4,150.1c-0.3,0-0.5-0.2-0.5-0.4c0,0,0,0,0,0v-0.1c0-0.3,0.2-0.5,0.5-0.5s0.5,0.2,0.5,0.5
			c-0.1,0.2-0.3,0.4-0.5,0.4V150.1z M52.4,146.1c-0.3,0-0.5-0.2-0.5-0.5v-0.1c0-0.3,0.2-0.5,0.5-0.5s0.5,0.2,0.5,0.5v0.1
			c-0.1,0.2-0.3,0.3-0.5,0.3V146.1z M52.4,142c-0.3,0-0.5-0.2-0.5-0.5v-0.1c0-0.3,0.2-0.5,0.5-0.5s0.5,0.2,0.5,0.5v0.1
			c-0.1,0.2-0.3,0.3-0.5,0.3V142z M52.4,137.9c-0.3,0-0.5-0.2-0.5-0.5v-0.1c0-0.3,0.2-0.5,0.5-0.5s0.5,0.2,0.5,0.5v0.1
			c-0.1,0.2-0.3,0.3-0.5,0.3V137.9z M52.4,133.8c-0.3,0-0.5-0.2-0.5-0.5v-0.1c0-0.3,0.2-0.5,0.5-0.5s0.5,0.2,0.5,0.5v0.1
			c-0.1,0.2-0.3,0.3-0.5,0.3V133.8z M52.4,129.7c-0.3,0-0.5-0.2-0.5-0.4c0,0,0,0,0,0v-0.1c0-0.3,0.2-0.5,0.5-0.5s0.5,0.2,0.5,0.5
			c-0.1,0.2-0.3,0.3-0.5,0.3V129.7z M52.4,125.7c-0.3,0-0.5-0.2-0.5-0.5v-0.1c0-0.3,0.2-0.5,0.5-0.5s0.5,0.2,0.5,0.5v0.1
			c-0.1,0.2-0.3,0.3-0.5,0.2V125.7z M52.4,121.6c-0.3,0-0.5-0.2-0.5-0.5v-0.4c0-0.3,0.2-0.5,0.5-0.5s0.5,0.2,0.5,0.5v0.1
			c0,0.3-0.2,0.5-0.5,0.5c0,0,0,0,0,0V121.6z M52.4,117.5c-0.3,0-0.5-0.2-0.5-0.5v-0.1c0-0.3,0.2-0.5,0.5-0.5s0.5,0.2,0.5,0.5v0.1
			c-0.1,0.2-0.3,0.3-0.5,0.2V117.5z M52.4,113.4c-0.3,0-0.5-0.2-0.5-0.5v-0.1c0-0.3,0.2-0.5,0.5-0.5s0.5,0.2,0.5,0.5v0.1
			c-0.1,0.2-0.3,0.3-0.5,0.2V113.4z M54.4,110.4c-0.3,0-0.5-0.2-0.5-0.5c0-0.2,0.1-0.3,0.2-0.4l0.1-0.1c0.3-0.1,0.5,0,0.7,0.2
			c0.1,0.2,0,0.5-0.2,0.6h-0.1c-0.1,0-0.2-0.1-0.3-0.1V110.4z M58,108.3c-0.2,0-0.4-0.1-0.4-0.2c-0.1-0.2-0.1-0.5,0.1-0.7
			c0,0,0,0,0,0h0.1c0.2-0.2,0.5-0.1,0.7,0.1c0.2,0.2,0.1,0.5-0.1,0.7c0,0-0.1,0-0.1,0.1c-0.1,0-0.2-0.1-0.3-0.2L58,108.3z
			 M61.6,106.3c-0.2,0-0.3-0.1-0.4-0.2c-0.1-0.2-0.1-0.5,0.1-0.6c0,0,0,0,0,0l0.1-0.1c0.2-0.1,0.5,0,0.7,0.2
			c0.1,0.2,0.1,0.5-0.2,0.7c0,0,0,0,0,0c-0.1,0-0.2-0.1-0.3-0.2V106.3z M65.1,104.3c-0.2,0-0.4-0.1-0.4-0.3c-0.1-0.2,0-0.5,0.2-0.7
			l0.1-0.1c0.2-0.1,0.5,0,0.7,0.2c0.1,0.2,0,0.5-0.2,0.6l-0.1,0.1c-0.1,0-0.2-0.1-0.3-0.2L65.1,104.3z M68.7,102.2
			c-0.2,0-0.3-0.1-0.4-0.2c-0.1-0.2-0.1-0.5,0.1-0.6c0,0,0,0,0,0l0.1-0.1c0.2-0.1,0.5,0,0.7,0.2c0.1,0.2,0,0.5-0.2,0.6
			c-0.1,0-0.2-0.1-0.3-0.2L68.7,102.2z M72.2,100.2c-0.2,0-0.3-0.1-0.4-0.2c-0.1-0.2-0.1-0.5,0.1-0.6c0,0,0,0,0,0l0.1-0.1
			c0.2-0.1,0.5,0,0.7,0.2c0.1,0.2,0,0.5-0.2,0.6c-0.1,0-0.2-0.1-0.3-0.2V100.2z M75.7,98.2c-0.3,0-0.5-0.2-0.5-0.5
			c0-0.2,0.1-0.3,0.2-0.4h0.1c0.2-0.1,0.5-0.1,0.7,0.2c0,0,0,0,0,0c0.1,0.2,0.1,0.5-0.2,0.7H76c-0.1,0-0.2-0.1-0.3-0.2L75.7,98.2z
			 M79.4,96.1c-0.2,0-0.4-0.1-0.4-0.2c-0.1-0.2-0.1-0.5,0.1-0.7c0,0,0,0,0,0h0.1c0.2-0.1,0.5-0.1,0.7,0.2c0.1,0.2,0,0.5-0.2,0.7
			c-0.1-0.1-0.2-0.1-0.3-0.2V96.1z M82.9,94.1c-0.2,0-0.4-0.1-0.4-0.2c-0.1-0.2-0.1-0.5,0.1-0.7c0,0,0,0,0,0h0.1
			c0.2-0.1,0.5,0,0.7,0.2c0.1,0.2,0,0.5-0.2,0.6c-0.1-0.1-0.2-0.2-0.3-0.3V94.1z M86.4,92.1c-0.2,0-0.3-0.1-0.4-0.3
			c-0.1-0.2,0-0.5,0.2-0.7h0.1c0.2-0.1,0.5,0,0.7,0.2c0.1,0.2,0,0.5-0.2,0.7h-0.1c-0.1,0-0.2-0.1-0.3-0.2V92.1z M90,90.1
			c-0.2,0-0.3-0.1-0.4-0.2c-0.1-0.2-0.1-0.5,0.1-0.6c0,0,0,0,0,0h0.1c0.2-0.1,0.5,0,0.7,0.2c0.1,0.2,0.1,0.5-0.2,0.7c0,0,0,0,0,0
			c-0.1-0.1-0.2-0.2-0.3-0.3V90.1z M93.6,88.1c-0.2,0-0.3-0.1-0.4-0.2c-0.1-0.2-0.1-0.5,0.1-0.6c0,0,0,0,0,0l0.1-0.1
			c0.2-0.1,0.5,0,0.7,0.2c0.1,0.2,0,0.5-0.2,0.6c-0.1,0-0.2-0.1-0.3-0.3V88.1z M97.1,86.1c-0.3,0-0.5-0.2-0.5-0.5
			c0-0.2,0.1-0.3,0.2-0.4l0.1-0.1c0.2-0.1,0.5-0.1,0.7,0.2c0.1,0.2,0.1,0.5-0.2,0.7h-0.1c-0.1,0-0.2-0.1-0.2-0.2L97.1,86.1z"/>
		<path class="st1" d="M123.8,115c-0.2,0-0.4-0.1-0.4-0.2c-0.1-0.2-0.1-0.5,0.1-0.6c0,0,0,0,0,0l0.1-0.1c0.2-0.2,0.5-0.1,0.7,0.1
			s0.1,0.5-0.1,0.7c0,0-0.1,0-0.1,0.1C124,114.9,123.9,115,123.8,115z M122.1,113.7c-0.3,0-0.5-0.2-0.5-0.5v-0.1
			c0-0.3,0.2-0.5,0.5-0.5s0.5,0.2,0.5,0.5v0.1C122.6,113.5,122.4,113.7,122.1,113.7L122.1,113.7L122.1,113.7z M127.3,112.9
			c-0.2,0-0.4-0.1-0.4-0.2c-0.1-0.2-0.1-0.5,0.1-0.7l0.1-0.1c0.2-0.1,0.5,0,0.7,0.2c0.1,0.2,0.1,0.5-0.2,0.7c0,0,0,0,0,0
			C127.5,112.9,127.4,112.9,127.3,112.9L127.3,112.9z M130.9,110.9c-0.2,0-0.3-0.1-0.4-0.2c-0.1-0.2-0.1-0.5,0.1-0.7c0,0,0,0,0,0
			h0.1c0.2-0.1,0.5-0.1,0.7,0.2c0.1,0.2,0.1,0.5-0.2,0.7C131.1,110.9,131,110.9,130.9,110.9L130.9,110.9z M122.1,109.7
			c-0.3,0-0.5-0.2-0.5-0.5v-0.1c0-0.3,0.2-0.5,0.5-0.5s0.5,0.2,0.5,0.5v0.1C122.6,109.5,122.4,109.7,122.1,109.7L122.1,109.7z
			 M134.4,108.8c-0.2,0-0.3-0.1-0.4-0.2c-0.1-0.2-0.1-0.5,0.1-0.6c0,0,0,0,0,0l0.1-0.1c0.3-0.1,0.5,0,0.7,0.2c0.1,0.2,0,0.5-0.2,0.6
			C134.6,108.8,134.5,108.8,134.4,108.8L134.4,108.8z M137.9,106.8c-0.3,0-0.5-0.2-0.5-0.5c0-0.2,0.1-0.3,0.2-0.4l0.1-0.1
			c0.3-0.1,0.5,0,0.7,0.2c0.1,0.2,0,0.5-0.2,0.6l-0.1,0.1C138.1,106.8,138,106.8,137.9,106.8L137.9,106.8z M122.1,105.6
			c-0.3,0-0.5-0.2-0.5-0.5c0-0.3,0.2-0.5,0.5-0.6c0.3,0,0.5,0.2,0.5,0.4c0,0,0,0,0,0v0.1C122.6,105.4,122.4,105.6,122.1,105.6
			L122.1,105.6z M141.5,104.7c-0.2,0-0.3-0.1-0.4-0.2c-0.1-0.2-0.1-0.5,0.1-0.6c0,0,0,0,0,0h0.1c0.2-0.1,0.5-0.1,0.7,0.2
			c0.1,0.2,0.1,0.5-0.2,0.7C141.7,104.7,141.6,104.7,141.5,104.7L141.5,104.7z M145.1,102.7c-0.2,0-0.3-0.1-0.4-0.2
			c-0.1-0.2-0.1-0.5,0.1-0.6c0,0,0,0,0,0h0.1c0.2-0.1,0.5-0.1,0.7,0.2c0.1,0.2,0.1,0.5-0.2,0.7C145.3,102.7,145.2,102.7,145.1,102.7
			L145.1,102.7z M122.1,101.5c-0.3,0-0.5-0.2-0.5-0.5v-0.1c0-0.3,0.2-0.5,0.5-0.5s0.5,0.2,0.5,0.5v0.1
			C122.6,101.3,122.4,101.5,122.1,101.5L122.1,101.5z M148.6,100.7c-0.3,0.1-0.6-0.1-0.6-0.4c-0.1-0.3,0.1-0.6,0.4-0.6l0,0h0.1
			c0.2-0.2,0.5-0.1,0.7,0.1c0.2,0.2,0.1,0.5-0.1,0.7c0,0-0.1,0-0.1,0.1h-0.1C148.7,100.6,148.7,100.6,148.6,100.7L148.6,100.7z
			 M152.2,98.6c-0.2,0-0.3-0.1-0.4-0.2c-0.1-0.2-0.1-0.5,0.1-0.6c0,0,0,0,0,0h0.1c0.2-0.1,0.5-0.1,0.7,0.2c0.1,0.2,0.1,0.5-0.2,0.7
			C152.4,98.6,152.3,98.6,152.2,98.6L152.2,98.6z M122.2,97.4c-0.3,0-0.5-0.2-0.5-0.5v-0.1c0-0.3,0.2-0.5,0.5-0.5s0.5,0.2,0.5,0.5
			v0.1C122.6,97.2,122.4,97.4,122.2,97.4L122.2,97.4z M155.8,96.5c-0.2,0-0.3-0.1-0.4-0.2c-0.1-0.2-0.1-0.5,0.1-0.6c0,0,0,0,0,0h0.1
			c0.2-0.1,0.6-0.1,0.7,0.2c0.1,0.2,0,0.5-0.2,0.7C155.9,96.5,155.8,96.5,155.8,96.5L155.8,96.5z M159.3,94.5
			c-0.2,0-0.3-0.1-0.4-0.3c-0.1-0.2,0-0.5,0.2-0.7l0.1-0.1c0.2-0.1,0.5-0.1,0.7,0.2c0.1,0.2,0,0.5-0.2,0.7h-0.1
			C159.4,94.5,159.3,94.5,159.3,94.5L159.3,94.5z M162.9,92.4c-0.2,0-0.4-0.1-0.4-0.2c-0.1-0.2-0.1-0.5,0.1-0.6c0,0,0,0,0,0h0.1
			c0.2-0.2,0.5-0.1,0.7,0.1c0.2,0.2,0.1,0.5-0.1,0.7c0,0-0.1,0-0.1,0.1C163,92.4,162.9,92.4,162.9,92.4L162.9,92.4z"/>
		<path class="st40" d="M373.5,318L307,355.2c-3,1.7-8.1,1.5-11.5-0.5l-22.1-13.2c-3.4-2-3.8-5-0.8-6.7l66.2-38
			c3-1.7,8.1-1.5,11.5,0.5l22.4,13.9C376,313.3,376.4,316.3,373.5,318z"/>
		
			<linearGradient id="SVGID_21_" gradientUnits="userSpaceOnUse" x1="424.057" y1="158.828" x2="272.667" y2="42.068" gradientTransform="matrix(1 0 0 -1 -48.71 470.67)">
			<stop  offset="0" style="stop-color:#E4F2FF"/>
			<stop  offset="6.000000e-02" style="stop-color:#E1EFFF"/>
			<stop  offset="0.65" style="stop-color:#C7D7FB"/>
			<stop  offset="1" style="stop-color:#BDCEFA"/>
		</linearGradient>
		<path class="st41" d="M375.4,322.1v-6.5l0,0c-0.3,1-1,1.9-1.9,2.4L307,355.2c-1.7,0.8-3.5,1.2-5.4,1.1v7.5
			c1.9,0.1,3.7-0.3,5.4-1.1l66.5-37.2C374.8,325,375.6,323.6,375.4,322.1z"/>
		
			<linearGradient id="SVGID_22_" gradientUnits="userSpaceOnUse" x1="379.2094" y1="159.8207" x2="325.5794" y2="111.2206" gradientTransform="matrix(1 0 0 -1 -48.71 470.67)">
			<stop  offset="0" style="stop-color:#E4F2FF"/>
			<stop  offset="6.000000e-02" style="stop-color:#E1EFFF"/>
			<stop  offset="0.65" style="stop-color:#C7D7FB"/>
			<stop  offset="1" style="stop-color:#BDCEFA"/>
		</linearGradient>
		<path class="st42" d="M295.5,354.7l-22.1-13.2c-1.3-0.6-2.4-1.8-2.8-3.3v6.5c-0.3,1.5,0.6,3.1,2.8,4.3l22.1,13.2
			c1.9,1,4,1.6,6.2,1.6v-7.5C299.5,356.3,297.4,355.8,295.5,354.7z"/>
		<path class="st40" d="M401.1,358.9l-66.5,37.2c-3,1.7-8.1,1.5-11.5-0.5L301,382.5c-3.4-2-3.8-5-0.8-6.7l66.2-38
			c3-1.7,8.1-1.5,11.5,0.5l22.4,13.9C403.7,354.2,404.1,357.2,401.1,358.9z"/>
		
			<linearGradient id="SVGID_23_" gradientUnits="userSpaceOnUse" x1="448.0769" y1="112.836" x2="306.0569" y2="12.586" gradientTransform="matrix(1 0 0 -1 -48.71 470.67)">
			<stop  offset="0" style="stop-color:#E4F2FF"/>
			<stop  offset="6.000000e-02" style="stop-color:#E1EFFF"/>
			<stop  offset="0.65" style="stop-color:#C7D7FB"/>
			<stop  offset="1" style="stop-color:#BDCEFA"/>
		</linearGradient>
		<path class="st43" d="M403.1,363.1v-6.5l0,0c-0.3,1-1,1.9-1.9,2.4l-66.5,37.2c-1.7,0.8-3.5,1.2-5.4,1.1v7.6
			c1.9,0.1,3.7-0.3,5.4-1.1l66.5-37.2C402.5,365.9,403.2,364.5,403.1,363.1z"/>
		
			<linearGradient id="SVGID_24_" gradientUnits="userSpaceOnUse" x1="425.3747" y1="118.4084" x2="358.5447" y2="76.1484" gradientTransform="matrix(1 0 0 -1 -48.71 470.67)">
			<stop  offset="0" style="stop-color:#E4F2FF"/>
			<stop  offset="6.000000e-02" style="stop-color:#E1EFFF"/>
			<stop  offset="0.65" style="stop-color:#C7D7FB"/>
			<stop  offset="1" style="stop-color:#BDCEFA"/>
		</linearGradient>
		<path class="st44" d="M323.1,395.7L301,382.5c-1.3-0.6-2.4-1.8-2.8-3.3v6.5c-0.3,1.5,0.6,3.1,2.8,4.3l22.1,13.2
			c1.9,1,4,1.6,6.2,1.6v-7.6C327.1,397.3,325,396.7,323.1,395.7z"/>
		<path class="st40" d="M389.4,253.6L192.2,367.1c-8.9,5.1-24.5,4.5-34.8-1.5L37.1,296.5c-10.3-5.9-11.4-15-2.5-20.1l200.6-111.9
			c8.9-5.1,24.5-4.5,34.8,1.4l116.9,67.5C397.1,239.4,398.3,248.4,389.4,253.6z"/>
		
			<linearGradient id="SVGID_25_" gradientUnits="userSpaceOnUse" x1="462.8698" y1="255.4503" x2="209.6998" y2="60.5303" gradientTransform="matrix(1 0 0 -1 -48.71 470.67)">
			<stop  offset="0" style="stop-color:#E4F2FF"/>
			<stop  offset="6.000000e-02" style="stop-color:#E1EFFF"/>
			<stop  offset="0.65" style="stop-color:#C7D7FB"/>
			<stop  offset="1" style="stop-color:#BDCEFA"/>
		</linearGradient>
		<path class="st45" d="M395.2,251.9v-5.4l0,0c-0.5,2.7-2.5,5.2-5.8,7.1L192.2,367.1c-4.3,2.5-10.1,3.6-16.2,3.4v8.6
			c6,0.1,11.9-1,16.2-3.4l197.2-113.6C394,259.4,395.9,255.7,395.2,251.9z"/>
		<path class="st46" d="M157.4,365.7L37.1,296.5c-4.9-2.8-7.7-6.4-8.3-9.9v5.4c-0.9,4.4,1.9,9.3,8.3,13l120.3,69.2
			c5.7,3.1,12.1,4.8,18.6,4.9v-8.6C169.5,370.5,163.1,368.8,157.4,365.7z"/>
		
			<linearGradient id="SVGID_26_" gradientUnits="userSpaceOnUse" x1="317.2574" y1="114.1213" x2="216.9173" y2="128.3013" gradientTransform="matrix(1 0 0 -1 -48.71 470.67)">
			<stop  offset="0" style="stop-color:#E4F2FF"/>
			<stop  offset="6.000000e-02" style="stop-color:#E1EFFF"/>
			<stop  offset="0.65" style="stop-color:#C7D7FB"/>
			<stop  offset="1" style="stop-color:#BDCEFA"/>
		</linearGradient>
		<path class="st47" d="M157.4,365.7L37.1,296.5c-4.9-2.8-7.7-6.4-8.3-9.9v5.4c-0.9,4.4,1.9,9.3,8.3,13l120.3,69.2
			c5.7,3.1,12.1,4.8,18.6,4.9v-8.6C169.5,370.5,163.1,368.8,157.4,365.7z"/>
		<polygon class="st17" points="204.2,316.1 163,339.9 58.3,279.4 99.4,255.6 		"/>
		
			<linearGradient id="SVGID_27_" gradientUnits="userSpaceOnUse" x1="202.6308" y1="178.2793" x2="79.1308" y2="56.2792" gradientTransform="matrix(1 0 0 -1 0 496)">
			<stop  offset="0" style="stop-color:#E4F2FF"/>
			<stop  offset="6.000000e-02" style="stop-color:#E1EFFF"/>
			<stop  offset="0.65" style="stop-color:#C7D7FB"/>
			<stop  offset="1" style="stop-color:#BDCEFA"/>
		</linearGradient>
		<polygon class="st48" points="204.2,316.1 204.2,333.2 163,357 163,339.9 		"/>
		
			<linearGradient id="SVGID_28_" gradientUnits="userSpaceOnUse" x1="264.8901" y1="133.0404" x2="78.8901" y2="187.0405" gradientTransform="matrix(1 0 0 -1 0 496)">
			<stop  offset="0" style="stop-color:#E4F2FF"/>
			<stop  offset="6.000000e-02" style="stop-color:#E1EFFF"/>
			<stop  offset="0.65" style="stop-color:#C7D7FB"/>
			<stop  offset="1" style="stop-color:#BDCEFA"/>
		</linearGradient>
		<polygon class="st49" points="58.3,279.4 58.3,296.5 163,357 163,339.9 		"/>
		<path class="st50" d="M118.7,273.9l-18.1,10.4c-1.7,0.7-3.6,0.7-5.2-0.2l-17.3-10c-1.5-0.9-1.7-2.2-0.4-3l18.1-10.4
			c1.7-0.7,3.6-0.7,5.2,0.2l17.3,10C119.8,271.8,120,273.2,118.7,273.9z"/>
		<path class="st51" d="M119.5,280.8v-8l0,0c-0.1,0.5-0.4,0.8-0.9,1.1l-18.1,10.4c-0.7,0.4-1.6,0.5-2.4,0.5v8.4
			c0.8,0,1.7-0.1,2.4-0.5l18.1-10.4C119.3,282,119.6,281.4,119.5,280.8z"/>
		<path class="st52" d="M95.4,284.1l-17.3-10c-0.6-0.3-1.1-0.8-1.2-1.5v8c-0.1,0.6,0.3,1.4,1.2,1.9l17.3,10c0.9,0.5,1.8,0.7,2.8,0.7
			v-8.4C97.2,284.9,96.3,284.6,95.4,284.1z"/>
		<path class="st53" d="M150.5,292.4l-18.1,10.4c-1.7,0.7-3.6,0.7-5.2-0.2l-17.3-10c-1.5-0.9-1.7-2.2-0.4-3l18.1-10.4
			c1.7-0.7,3.6-0.7,5.2,0.2l17.3,10C151.7,290.3,151.9,291.7,150.5,292.4z"/>
		<path class="st54" d="M151.4,299.3v-8l0,0c-0.1,0.5-0.4,0.8-0.9,1.1l-18.1,10.4c-0.7,0.4-1.6,0.6-2.4,0.5v8.4
			c0.8,0.1,1.7-0.1,2.4-0.5l18.1-10.4C151.1,300.5,151.5,299.9,151.4,299.3z"/>
		<path class="st55" d="M127.3,302.6l-17.3-10c-0.6-0.3-1.1-0.8-1.2-1.5v8c-0.1,0.6,0.3,1.4,1.2,1.9l17.3,10
			c0.8,0.5,1.8,0.7,2.8,0.7v-8.4C129.1,303.3,128.1,303.1,127.3,302.6z"/>
		<path class="st56" d="M183.1,311.1L165,321.5c-1.7,0.7-3.6,0.7-5.2-0.2l-17.3-10c-1.5-0.9-1.7-2.2-0.4-3l18.1-10.4
			c1.7-0.7,3.6-0.7,5.2,0.2l17.3,10C184.2,309,184.4,310.3,183.1,311.1z"/>
		<path class="st57" d="M183.9,318v-8l0,0c-0.1,0.5-0.4,0.8-0.9,1.1L165,321.5c-0.7,0.4-1.6,0.5-2.4,0.5v8.4c0.8,0,1.7-0.1,2.4-0.5
			l18.1-10.4C183.7,319.3,184,318.6,183.9,318z"/>
		<path class="st58" d="M159.8,321.3l-17.3-10c-0.6-0.3-1.1-0.8-1.2-1.5v8c-0.1,0.6,0.3,1.4,1.2,1.9l17.3,10
			c0.8,0.5,1.8,0.7,2.8,0.7v-8.4C161.6,322,160.7,321.8,159.8,321.3z"/>
		<ellipse class="st17" cx="353.7" cy="223.9" rx="27.9" ry="16.1"/>
		
			<linearGradient id="SVGID_29_" gradientUnits="userSpaceOnUse" x1="450.7599" y1="232.0221" x2="375.2599" y2="229.5221" gradientTransform="matrix(1 0 0 -1 -48.71 470.67)">
			<stop  offset="0" style="stop-color:#E4F2FF"/>
			<stop  offset="6.000000e-02" style="stop-color:#E1EFFF"/>
			<stop  offset="0.65" style="stop-color:#C7D7FB"/>
			<stop  offset="1" style="stop-color:#BDCEFA"/>
		</linearGradient>
		<path class="st59" d="M373.5,235.2c-10.9,6.3-28.5,6.3-39.4,0c-5.4-3.1-8.1-7.2-8.1-11.3v17.3c0,4.1,2.7,8.3,8.1,11.5
			c10.9,6.3,28.5,6.3,39.4,0c5.5-3.2,8.2-7.3,8.1-11.5V224C381.6,228.1,378.9,232.1,373.5,235.2z"/>
		<path class="st60" d="M353.8,211.7l17,9.8c-9.3,5.4-24.7,5.4-34,0s-9.3-14.3,0-19.6c5.2-3,12.5-4.5,19.9-4L353.8,211.7z"/>
		<path class="st52" d="M336.7,221.4c-4.6-2.7-7-6.2-7-9.8v9.9c0,3.6,2.3,7.2,7,9.9c9.3,5.4,24.7,5.4,34,0v-10
			C361.4,226.8,346.1,226.8,336.7,221.4z"/>
		<path class="st50" d="M353.8,211.7l17,9.8c-9.3,5.4-24.7,5.4-34,0s-9.3-14.3,0-19.6c5.2-3,12.5-4.5,19.9-4L353.8,211.7z"/>
		<path class="st53" d="M353.8,201.5l2.8-13.8c5,0.3,9.8,1.6,14.2,4c9.3,5.4,9.3,14.3,0,19.6L353.8,201.5z"/>
		<polygon class="st55" points="353.7,201.5 353.7,211.6 370.8,221.5 370.8,211.3 		"/>
		<path class="st54" d="M377.8,221.5v-20c0,3.5-2.4,7-7,9.7v20.1C375.5,228.7,377.8,225.1,377.8,221.5z"/>
		<path class="st17" d="M296.5,196.3l-39.6-22.9c-4.7-2.7-4.1-7.4,1.3-10.5l0,0c5.4-3.1,13.6-3.5,18.3-0.8L316,185
			c4.7,2.7,4.1,7.4-1.3,10.5l0,0C309.3,198.7,301.1,199,296.5,196.3z"/>
		
			<linearGradient id="SVGID_30_" gradientUnits="userSpaceOnUse" x1="368.3957" y1="265.15" x2="309.8957" y2="298.4" gradientTransform="matrix(1 0 0 -1 -48.71 470.67)">
			<stop  offset="0" style="stop-color:#E4F2FF"/>
			<stop  offset="6.000000e-02" style="stop-color:#E1EFFF"/>
			<stop  offset="0.65" style="stop-color:#C7D7FB"/>
			<stop  offset="1" style="stop-color:#BDCEFA"/>
		</linearGradient>
		<path class="st61" d="M314.7,195.5c-5.4,3.1-13.6,3.5-18.3,0.8l-39.6-22.9c-2-1.2-3.1-2.7-3.2-4.4l0,0v11.6c0,0,0,0.1,0,0.1
			c0,1.7,1.1,3.3,3.2,4.5l39.6,22.9c4.7,2.7,12.9,2.4,18.3-0.8c3-1.8,4.6-4,4.5-6.2v-11.8C319.2,191.5,317.7,193.8,314.7,195.5z"/>
		<path class="st1" d="M273.7,169.9c-2.3,1.2-5,1.2-7.4,0c-2-1.2-2-3.1,0-4.3c2.3-1.2,5-1.2,7.4,0
			C275.8,166.9,275.8,168.8,273.7,169.9z"/>
		<path class="st1" d="M285.2,176.6c-2.3,1.2-5,1.2-7.4,0c-2-1.2-2-3.1,0-4.2c2.3-1.2,5-1.2,7.4,0
			C287.3,173.5,287.3,175.4,285.2,176.6z"/>
		<path class="st1" d="M296.7,183.2c-2.3,1.2-5,1.2-7.4,0c-2-1.2-2-3.1,0-4.3c2.3-1.2,5-1.2,7.4,0
			C298.7,180.1,298.7,182,296.7,183.2z"/>
		<path class="st1" d="M308.2,189.8c-2.3,1.2-5,1.2-7.4,0c-2-1.2-2-3.1,0-4.2c2.3-1.2,5-1.2,7.4,0
			C310.2,186.8,310.2,188.7,308.2,189.8z"/>
		<path class="st17" d="M118.9,241.5V154c0-2.2,1.2-4.3,3.1-5.4l105.3-60.8c3-1.7,6.8-0.7,8.5,2.3c0.5,0.9,0.8,2,0.8,3.1v87.6
			c0,2.2-1.2,4.3-3.1,5.4l-105.2,60.8c-3,1.7-6.8,0.8-8.5-2.2C119.2,243.8,118.9,242.7,118.9,241.5z"/>
		
			<linearGradient id="SVGID_31_" gradientUnits="userSpaceOnUse" x1="135.161" y1="154.1078" x2="306.0209" y2="433.3477" gradientTransform="matrix(1 0 0 -1 -48.71 470.67)">
			<stop  offset="0" style="stop-color:#0F123B"/>
			<stop  offset="7.000000e-02" style="stop-color:#141754"/>
			<stop  offset="0.21" style="stop-color:#1B1F7A"/>
			<stop  offset="0.35" style="stop-color:#212599"/>
			<stop  offset="0.49" style="stop-color:#262AB2"/>
			<stop  offset="0.64" style="stop-color:#292DC3"/>
			<stop  offset="0.81" style="stop-color:#2B2FCE"/>
			<stop  offset="1" style="stop-color:#2C30D1"/>
		</linearGradient>
		<path class="st62" d="M125.2,245.7c-2.3,0-4.1-1.9-4.1-4.1V154c0-1.5,0.8-2.8,2.1-3.6l105.2-60.7c0.6-0.4,1.3-0.5,2-0.6
			c2.3,0,4.1,1.9,4.1,4.1v87.6c0,1.5-0.8,2.8-2.1,3.6l-105.2,60.7C126.6,245.5,125.9,245.7,125.2,245.7z"/>
		
			<linearGradient id="SVGID_32_" gradientUnits="userSpaceOnUse" x1="270.4939" y1="395.8936" x2="152.9939" y2="255.8936" gradientTransform="matrix(1 0 0 -1 -48.71 470.67)">
			<stop  offset="0" style="stop-color:#E4F2FF"/>
			<stop  offset="6.000000e-02" style="stop-color:#E1EFFF"/>
			<stop  offset="0.65" style="stop-color:#C7D7FB"/>
			<stop  offset="1" style="stop-color:#BDCEFA"/>
		</linearGradient>
		<path class="st63" d="M118.9,241.5V154c0-2.2,1.2-4.3,3.1-5.4l105.3-60.8c1.6-0.9,3.6-1.1,5.3-0.4l0,0l-2.5-1.3
			c-2-1.5-4.7-1.7-6.8-0.4L118,146.4c-1.9,1.1-3.1,3.2-3.1,5.4v87.6c0,2,0.9,3.8,2.6,5l0,0h0.1c0.4,0.3,0.9,0.5,1.3,0.7l2.8,1.5
			C120,245.5,118.9,243.6,118.9,241.5z"/>
		
			<linearGradient id="SVGID_33_" gradientUnits="userSpaceOnUse" x1="171.53" y1="223.37" x2="171.53" y2="223.37" gradientTransform="matrix(1 0 0 -1 -48.71 470.67)">
			<stop  offset="0" style="stop-color:#E4F2FF"/>
			<stop  offset="6.000000e-02" style="stop-color:#E1EFFF"/>
			<stop  offset="0.65" style="stop-color:#C7D7FB"/>
			<stop  offset="1" style="stop-color:#BDCEFA"/>
		</linearGradient>
		<path class="st64" d="M122.8,247.3L122.8,247.3z"/>
		<path class="st17" d="M128.3,257.7l75.8,43.8c1.9,1.1,4.3,1.1,6.2,0l105.2-60.8c3-1.7,4-5.5,2.3-8.5c-0.5-0.9-1.3-1.7-2.3-2.3
			l-75.8-43.8c-1.9-1.1-4.3-1.1-6.2,0l-105.2,60.8c-3,1.7-4,5.5-2.2,8.5C126.6,256.4,127.4,257.1,128.3,257.7z"/>
		
			<linearGradient id="SVGID_34_" gradientUnits="userSpaceOnUse" x1="397.0286" y1="214.4004" x2="216.0786" y2="190.6604" gradientTransform="matrix(1 0 0 -1 -48.71 470.67)">
			<stop  offset="0" style="stop-color:#E4F2FF"/>
			<stop  offset="6.000000e-02" style="stop-color:#E1EFFF"/>
			<stop  offset="0.65" style="stop-color:#C7D7FB"/>
			<stop  offset="1" style="stop-color:#BDCEFA"/>
		</linearGradient>
		<path class="st65" d="M315.5,240.7l-105.3,60.8c-1.9,1.1-4.3,1.1-6.2,0l-75.8-43.8c-1.9-1.1-3.1-3.2-3.1-5.4v5.7
			c0,2.2,1.2,4.3,3.1,5.4l75.8,43.8c1.9,1.1,4.3,1.1,6.2,0l105.3-60.8c1.8-1.1,3-3,3.1-5.1l0,0v-5.7
			C318.6,237.7,317.4,239.6,315.5,240.7z M318.6,235C318.6,235,318.6,235.1,318.6,235L318.6,235z"/>
		<path class="st66" d="M276.3,223.5l-90.4,52.1c-3.5,2-9.7,1.8-13.8-0.6L145,259.4c-4.1-2.4-4.5-5.9-1-7.9l90.4-52.2
			c3.5-2,9.7-1.8,13.8,0.6l27.2,15.7C279.4,217.9,279.8,221.5,276.3,223.5z"/>
		<path class="st67" d="M144,252.7l90.4-52.2c3.5-2,9.7-1.8,13.8,0.6l27.2,15.7c1.9,1.1,3,2.5,3.3,3.9c0.4-1.7-0.8-3.7-3.3-5.1
			l-27.2-15.7c-4.1-2.4-10.2-2.6-13.8-0.6L144,251.5c-1.9,1.1-2.6,2.5-2.3,4.1C142,254.3,142.8,253.3,144,252.7z"/>
		<path class="st67" d="M216.9,223.2l-4.8-2.8l-4.8,2.8l4.8,2.8L216.9,223.2z M207.5,228.6l-4.8-2.8l-4.8,2.8l4.8,2.8L207.5,228.6z
			 M226.3,217.7l-4.8-2.8l-4.8,2.8l4.8,2.8L226.3,217.7z M253.7,220.6l10-5.8l-4.8-2.8l-10,5.8L253.7,220.6z M255.6,210.2l-4.8-2.8
			l-4.8,2.8l4.8,2.8L255.6,210.2z M235.8,212.3l-4.8-2.8l-4.8,2.8l4.8,2.8L235.8,212.3z M198.1,234.1l-4.8-2.8l-4.8,2.8l4.8,2.8
			L198.1,234.1z M247.3,218.8l-82.6,47.7l4.8,2.8l82.6-47.7L247.3,218.8z M188.7,239.5l-4.8-2.8l-4.8,2.8l4.8,2.8L188.7,239.5z
			 M243.5,211.7l-86.9,50.2l4.8,2.8l86.9-50.2L243.5,211.7z M267,216.8l-94.2,54.4l4.8,2.8l94.2-54.4L267,216.8z M169.8,250.4
			l-4.8-2.8l-4.8,2.8l4.8,2.8L169.8,250.4z M179.2,245l-4.8-2.8l-4.8,2.8l4.8,2.8L179.2,245z"/>
		<path class="st68" d="M216.9,222.3l-4.8-2.8l-4.8,2.8l4.8,2.8L216.9,222.3z M207.5,227.8l-4.8-2.8l-4.8,2.8l4.8,2.8L207.5,227.8z
			 M226.3,216.9l-4.8-2.8l-4.8,2.8l4.8,2.8L226.3,216.9z M253.7,219.8l10-5.8l-4.8-2.8l-10,5.8L253.7,219.8z M255.6,209.4l-4.8-2.8
			l-4.8,2.8l4.8,2.8L255.6,209.4z M235.8,211.5l-4.8-2.8l-4.8,2.8l4.8,2.8L235.8,211.5z M198.1,233.2l-4.8-2.8l-4.8,2.8l4.8,2.8
			L198.1,233.2z M247.3,218l-82.6,47.7l4.8,2.8l82.6-47.7L247.3,218z M188.7,238.7l-4.8-2.8l-4.8,2.8l4.8,2.8L188.7,238.7z
			 M243.5,210.8L156.6,261l4.8,2.8l86.9-50.2L243.5,210.8z M267,215.9l-94.2,54.4l4.8,2.8l94.2-54.4L267,215.9z M169.8,249.6
			l-4.8-2.8l-4.8,2.8l4.8,2.8L169.8,249.6z M179.2,244.1l-4.8-2.8l-4.8,2.8l4.8,2.8L179.2,244.1z"/>
		<path class="st17" d="M221.6,214.6l4.4,2.6l0.4-0.2l-4.8-2.8l-4.8,2.8l0.4,0.2L221.6,214.6z M231,209.1l4.4,2.6l0.4-0.2l-4.8-2.8
			l-4.8,2.8l0.4,0.2L231,209.1z M212.1,220l4.4,2.6l0.4-0.2l-4.8-2.8l-4.8,2.8l0.4,0.2L212.1,220z M249.3,217.2l9.6-5.6l4.4,2.6
			l0.4-0.2l-4.8-2.8l-10,5.8L249.3,217.2z M202.7,225.4l4.4,2.6l0.4-0.2l-4.8-2.8l-4.8,2.8l0.4,0.2L202.7,225.4z M250.8,207l4.5,2.6
			l0.4-0.2l-4.8-2.8l-4.8,2.8l0.4,0.2L250.8,207z M267,215.9l-94.2,54.4l0.4,0.2l93.9-54.2l4.4,2.6l0.4-0.2L267,215.9z M247.9,213.8
			l0.4-0.2l-4.8-2.8L156.6,261l0.4,0.2l86.6-50L247.9,213.8z M165,247.2l4.4,2.5l0.4-0.2l-4.8-2.8l-4.8,2.8l0.4,0.2L165,247.2z
			 M251.7,221l0.4-0.2l-4.8-2.8l-82.6,47.7l0.4,0.2l82.2-47.5L251.7,221z M174.5,241.8l4.4,2.5l0.4-0.2l-4.8-2.8l-4.8,2.8l0.4,0.2
			L174.5,241.8z M193.3,230.9l4.4,2.6l0.4-0.2l-4.8-2.8l-4.8,2.8l0.4,0.2L193.3,230.9z M183.9,236.3l4.4,2.6l0.4-0.2l-4.8-2.8
			l-4.8,2.8l0.4,0.2L183.9,236.3z"/>
		<path class="st66" d="M268.9,254.2l-28.2,16.3c-2.2,1-4.7,0.9-6.9-0.3l-6.2-3.6c-2-1.2-2.2-3-0.5-4l28.2-16.3
			c2.2-1,4.7-0.9,6.8,0.3l6.2,3.6C270.4,251.4,270.7,253.2,268.9,254.2z"/>
		<path class="st67" d="M227.2,263.5l28.2-16.3c2.2-1,4.7-0.9,6.8,0.3l6.2,3.6c0.8,0.4,1.3,1,1.6,1.8c0.3-0.9-0.3-1.9-1.6-2.7
			l-6.2-3.5c-2.1-1.2-4.6-1.3-6.8-0.3l-28.2,16.3c-0.8,0.4-1.3,1.2-1.1,2.1C226.3,264.2,226.7,263.7,227.2,263.5z"/>
		<path class="st17" d="M219.6,119.7v-3.2c0-2.8-2-3.9-4.4-2.5l-75,43.3c-2.6,1.7-4.2,4.5-4.4,7.6v3.2L219.6,119.7z"/>
		<g>
			<path class="st17" d="M143.6,159.4c-0.1,1.2-0.7,2.3-1.8,3c-1,0.6-1.8,0.1-1.8-1c0.1-1.2,0.7-2.3,1.8-3
				C142.9,157.9,143.6,158.3,143.6,159.4z"/>
			<path class="st17" d="M149.8,155.9c-0.1,1.2-0.7,2.4-1.8,3.1c-1,0.6-1.8,0.1-1.8-1c0.1-1.2,0.7-2.3,1.8-3
				C149,154.3,149.8,154.8,149.8,155.9z"/>
			<path class="st17" d="M156,152.3c-0.1,1.2-0.7,2.3-1.8,3c-1,0.6-1.8,0.1-1.8-1c0.1-1.2,0.7-2.3,1.8-3
				C155.2,150.7,156,151.2,156,152.3z"/>
		</g>
		<polygon class="st56" points="149.2,176 135.9,183.7 135.9,171.6 149.2,164 		"/>
		<polygon class="st53" points="165.7,166.5 152.5,174.1 152.5,162.1 165.7,154.4 		"/>
		<polygon class="st50" points="182.3,156.9 169,164.6 169,152.5 182.3,144.9 		"/>
		
			<linearGradient id="SVGID_35_" gradientUnits="userSpaceOnUse" x1="186.85" y1="352.445" x2="219.61" y2="352.445" gradientTransform="matrix(1 0 0 -1 0 496)">
			<stop  offset="0" style="stop-color:#FCFDFF;stop-opacity:0"/>
			<stop  offset="0.12" style="stop-color:#FCFAD7;stop-opacity:0.16"/>
			<stop  offset="0.37" style="stop-color:#FDF58C;stop-opacity:0.45"/>
			<stop  offset="0.59" style="stop-color:#FEF150;stop-opacity:0.69"/>
			<stop  offset="0.77" style="stop-color:#FFEE24;stop-opacity:0.86"/>
			<stop  offset="0.91" style="stop-color:#FFED0A;stop-opacity:0.96"/>
			<stop  offset="1" style="stop-color:#FFEC00"/>
		</linearGradient>
		<polygon class="st69" points="186.9,154.3 219.6,135.4 219.6,132.8 186.9,151.8 		"/>
		
			<linearGradient id="SVGID_36_" gradientUnits="userSpaceOnUse" x1="186.85" y1="357.205" x2="219.61" y2="357.205" gradientTransform="matrix(1 0 0 -1 0 496)">
			<stop  offset="0" style="stop-color:#FCFDFF;stop-opacity:0"/>
			<stop  offset="0.12" style="stop-color:#FCFAD7;stop-opacity:0.16"/>
			<stop  offset="0.37" style="stop-color:#FDF58C;stop-opacity:0.45"/>
			<stop  offset="0.59" style="stop-color:#FEF150;stop-opacity:0.69"/>
			<stop  offset="0.77" style="stop-color:#FFEE24;stop-opacity:0.86"/>
			<stop  offset="0.91" style="stop-color:#FFED0A;stop-opacity:0.96"/>
			<stop  offset="1" style="stop-color:#FFEC00"/>
		</linearGradient>
		<polygon class="st70" points="186.9,149.5 219.6,130.6 219.6,128.1 186.9,147 		"/>
		
			<linearGradient id="SVGID_37_" gradientUnits="userSpaceOnUse" x1="186.85" y1="361.965" x2="219.61" y2="361.965" gradientTransform="matrix(1 0 0 -1 0 496)">
			<stop  offset="0" style="stop-color:#FCFDFF;stop-opacity:0"/>
			<stop  offset="0.12" style="stop-color:#FCFAD7;stop-opacity:0.16"/>
			<stop  offset="0.37" style="stop-color:#FDF58C;stop-opacity:0.45"/>
			<stop  offset="0.59" style="stop-color:#FEF150;stop-opacity:0.69"/>
			<stop  offset="0.77" style="stop-color:#FFEE24;stop-opacity:0.86"/>
			<stop  offset="0.91" style="stop-color:#FFED0A;stop-opacity:0.96"/>
			<stop  offset="1" style="stop-color:#FFEC00"/>
		</linearGradient>
		<polygon class="st71" points="186.9,144.8 219.6,125.8 219.6,123.3 186.9,142.2 		"/>
		<path class="st17" d="M216.7,162.9l-77.9,45c-1.6,0.9-2.9-0.1-2.9-2.2v-14.5c0-2.2,1.1-4.2,2.9-5.5l77.9-45
			c1.6-0.9,2.9,0.1,2.9,2.2v14.5C219.6,159.6,218.5,161.6,216.7,162.9z"/>
		<polygon class="st56" points="170.1,186.6 159.9,192.5 159.9,179.9 170.1,174 		"/>
		<polygon class="st50" points="182.9,179.2 172.7,185.1 172.7,174.5 182.9,168.6 		"/>
		<polygon class="st53" points="195.6,171.9 185.4,177.8 185.4,162.3 195.6,156.4 		"/>
		
			<linearGradient id="SVGID_38_" gradientUnits="userSpaceOnUse" x1="197.3102" y1="327.1896" x2="222.2402" y2="342.5196" gradientTransform="matrix(1 0 0 -1 0 496)">
			<stop  offset="0" style="stop-color:#FCFDFF;stop-opacity:0"/>
			<stop  offset="0.12" style="stop-color:#FCDBE7;stop-opacity:0.16"/>
			<stop  offset="0.37" style="stop-color:#FD9CB8;stop-opacity:0.45"/>
			<stop  offset="0.59" style="stop-color:#FE6A94;stop-opacity:0.69"/>
			<stop  offset="0.77" style="stop-color:#FF4679;stop-opacity:0.86"/>
			<stop  offset="0.91" style="stop-color:#FF2F69;stop-opacity:0.96"/>
			<stop  offset="1" style="stop-color:#FF2763"/>
		</linearGradient>
		<polygon class="st72" points="213.9,159.8 216.7,158.2 216.7,155.7 213.9,157.3 		"/>
		
			<linearGradient id="SVGID_39_" gradientUnits="userSpaceOnUse" x1="195.1788" y1="330.652" x2="220.1188" y2="345.972" gradientTransform="matrix(1 0 0 -1 0 496)">
			<stop  offset="0" style="stop-color:#FCFDFF;stop-opacity:0"/>
			<stop  offset="0.12" style="stop-color:#FCDBE7;stop-opacity:0.16"/>
			<stop  offset="0.37" style="stop-color:#FD9CB8;stop-opacity:0.45"/>
			<stop  offset="0.59" style="stop-color:#FE6A94;stop-opacity:0.69"/>
			<stop  offset="0.77" style="stop-color:#FF4679;stop-opacity:0.86"/>
			<stop  offset="0.91" style="stop-color:#FF2F69;stop-opacity:0.96"/>
			<stop  offset="1" style="stop-color:#FF2763"/>
		</linearGradient>
		<polygon class="st73" points="213.9,155 216.7,153.5 216.7,150.9 213.9,152.5 		"/>
		
			<linearGradient id="SVGID_40_" gradientUnits="userSpaceOnUse" x1="193.0618" y1="334.0972" x2="217.9918" y2="349.4272" gradientTransform="matrix(1 0 0 -1 0 496)">
			<stop  offset="0" style="stop-color:#FCFDFF;stop-opacity:0"/>
			<stop  offset="0.12" style="stop-color:#FCDBE7;stop-opacity:0.16"/>
			<stop  offset="0.37" style="stop-color:#FD9CB8;stop-opacity:0.45"/>
			<stop  offset="0.59" style="stop-color:#FE6A94;stop-opacity:0.69"/>
			<stop  offset="0.77" style="stop-color:#FF4679;stop-opacity:0.86"/>
			<stop  offset="0.91" style="stop-color:#FF2F69;stop-opacity:0.96"/>
			<stop  offset="1" style="stop-color:#FF2763"/>
		</linearGradient>
		<polygon class="st74" points="213.9,150.3 216.7,148.7 216.7,146.2 213.9,147.8 		"/>
		
			<linearGradient id="SVGID_41_" gradientUnits="userSpaceOnUse" x1="197.14" y1="327.4601" x2="222.08" y2="342.7801" gradientTransform="matrix(1 0 0 -1 0 496)">
			<stop  offset="0" style="stop-color:#FCFDFF;stop-opacity:0"/>
			<stop  offset="0.12" style="stop-color:#FCDBE7;stop-opacity:0.16"/>
			<stop  offset="0.37" style="stop-color:#FD9CB8;stop-opacity:0.45"/>
			<stop  offset="0.59" style="stop-color:#FE6A94;stop-opacity:0.69"/>
			<stop  offset="0.77" style="stop-color:#FF4679;stop-opacity:0.86"/>
			<stop  offset="0.91" style="stop-color:#FF2F69;stop-opacity:0.96"/>
			<stop  offset="1" style="stop-color:#FF2763"/>
		</linearGradient>
		<polygon class="st75" points="198.5,168.7 212.6,160.6 212.6,158 198.5,166.2 		"/>
		
			<linearGradient id="SVGID_42_" gradientUnits="userSpaceOnUse" x1="195.0195" y1="330.9107" x2="219.9495" y2="346.2408" gradientTransform="matrix(1 0 0 -1 0 496)">
			<stop  offset="0" style="stop-color:#FCFDFF;stop-opacity:0"/>
			<stop  offset="0.12" style="stop-color:#FCDBE7;stop-opacity:0.16"/>
			<stop  offset="0.37" style="stop-color:#FD9CB8;stop-opacity:0.45"/>
			<stop  offset="0.59" style="stop-color:#FE6A94;stop-opacity:0.69"/>
			<stop  offset="0.77" style="stop-color:#FF4679;stop-opacity:0.86"/>
			<stop  offset="0.91" style="stop-color:#FF2F69;stop-opacity:0.96"/>
			<stop  offset="1" style="stop-color:#FF2763"/>
		</linearGradient>
		<polygon class="st76" points="198.5,164 212.6,155.8 212.6,153.3 198.5,161.4 		"/>
		
			<linearGradient id="SVGID_43_" gradientUnits="userSpaceOnUse" x1="192.8989" y1="334.3718" x2="217.8289" y2="349.6918" gradientTransform="matrix(1 0 0 -1 0 496)">
			<stop  offset="0" style="stop-color:#FCFDFF;stop-opacity:0"/>
			<stop  offset="0.12" style="stop-color:#FCDBE7;stop-opacity:0.16"/>
			<stop  offset="0.37" style="stop-color:#FD9CB8;stop-opacity:0.45"/>
			<stop  offset="0.59" style="stop-color:#FE6A94;stop-opacity:0.69"/>
			<stop  offset="0.77" style="stop-color:#FF4679;stop-opacity:0.86"/>
			<stop  offset="0.91" style="stop-color:#FF2F69;stop-opacity:0.96"/>
			<stop  offset="1" style="stop-color:#FF2763"/>
		</linearGradient>
		<polygon class="st77" points="198.5,159.2 212.6,151 212.6,148.5 198.5,156.7 		"/>
		
			<linearGradient id="SVGID_44_" gradientUnits="userSpaceOnUse" x1="159.9319" y1="317.7772" x2="131.7319" y2="298.6572" gradientTransform="matrix(1 0 0 -1 0 496)">
			<stop  offset="0" style="stop-color:#FCFDFF;stop-opacity:0"/>
			<stop  offset="0.12" style="stop-color:#FCFAD7;stop-opacity:0.16"/>
			<stop  offset="0.37" style="stop-color:#FDF58C;stop-opacity:0.45"/>
			<stop  offset="0.59" style="stop-color:#FEF150;stop-opacity:0.69"/>
			<stop  offset="0.77" style="stop-color:#FFEE24;stop-opacity:0.86"/>
			<stop  offset="0.91" style="stop-color:#FFED0A;stop-opacity:0.96"/>
			<stop  offset="1" style="stop-color:#FFEC00"/>
		</linearGradient>
		<polygon class="st78" points="141.7,189.5 138.9,191 138.9,193.6 141.7,192 		"/>
		
			<linearGradient id="SVGID_45_" gradientUnits="userSpaceOnUse" x1="162.1393" y1="314.511" x2="133.9393" y2="295.4011" gradientTransform="matrix(1 0 0 -1 0 496)">
			<stop  offset="0" style="stop-color:#FCFDFF;stop-opacity:0"/>
			<stop  offset="0.12" style="stop-color:#FCFAD7;stop-opacity:0.16"/>
			<stop  offset="0.37" style="stop-color:#FDF58C;stop-opacity:0.45"/>
			<stop  offset="0.59" style="stop-color:#FEF150;stop-opacity:0.69"/>
			<stop  offset="0.77" style="stop-color:#FFEE24;stop-opacity:0.86"/>
			<stop  offset="0.91" style="stop-color:#FFED0A;stop-opacity:0.96"/>
			<stop  offset="1" style="stop-color:#FFEC00"/>
		</linearGradient>
		<polygon class="st79" points="141.7,194.2 138.9,195.8 138.9,198.3 141.7,196.8 		"/>
		
			<linearGradient id="SVGID_46_" gradientUnits="userSpaceOnUse" x1="164.3464" y1="311.2552" x2="136.1464" y2="292.1353" gradientTransform="matrix(1 0 0 -1 0 496)">
			<stop  offset="0" style="stop-color:#FCFDFF;stop-opacity:0"/>
			<stop  offset="0.12" style="stop-color:#FCFAD7;stop-opacity:0.16"/>
			<stop  offset="0.37" style="stop-color:#FDF58C;stop-opacity:0.45"/>
			<stop  offset="0.59" style="stop-color:#FEF150;stop-opacity:0.69"/>
			<stop  offset="0.77" style="stop-color:#FFEE24;stop-opacity:0.86"/>
			<stop  offset="0.91" style="stop-color:#FFED0A;stop-opacity:0.96"/>
			<stop  offset="1" style="stop-color:#FFEC00"/>
		</linearGradient>
		<polygon class="st80" points="141.7,199 138.9,200.6 138.9,203.1 141.7,201.5 		"/>
		
			<linearGradient id="SVGID_47_" gradientUnits="userSpaceOnUse" x1="160.3799" y1="317.1001" x2="132.1799" y2="297.9801" gradientTransform="matrix(1 0 0 -1 0 496)">
			<stop  offset="0" style="stop-color:#FCFDFF;stop-opacity:0"/>
			<stop  offset="0.12" style="stop-color:#FCFAD7;stop-opacity:0.16"/>
			<stop  offset="0.37" style="stop-color:#FDF58C;stop-opacity:0.45"/>
			<stop  offset="0.59" style="stop-color:#FEF150;stop-opacity:0.69"/>
			<stop  offset="0.77" style="stop-color:#FFEE24;stop-opacity:0.86"/>
			<stop  offset="0.91" style="stop-color:#FFED0A;stop-opacity:0.96"/>
			<stop  offset="1" style="stop-color:#FFEC00"/>
		</linearGradient>
		<polygon class="st81" points="157.2,180.5 143,188.7 143,191.2 157.2,183.1 		"/>
		
			<linearGradient id="SVGID_48_" gradientUnits="userSpaceOnUse" x1="162.5907" y1="313.839" x2="134.3907" y2="294.719" gradientTransform="matrix(1 0 0 -1 0 496)">
			<stop  offset="0" style="stop-color:#FCFDFF;stop-opacity:0"/>
			<stop  offset="0.12" style="stop-color:#FCFAD7;stop-opacity:0.16"/>
			<stop  offset="0.37" style="stop-color:#FDF58C;stop-opacity:0.45"/>
			<stop  offset="0.59" style="stop-color:#FEF150;stop-opacity:0.69"/>
			<stop  offset="0.77" style="stop-color:#FFEE24;stop-opacity:0.86"/>
			<stop  offset="0.91" style="stop-color:#FFED0A;stop-opacity:0.96"/>
			<stop  offset="1" style="stop-color:#FFEC00"/>
		</linearGradient>
		<polygon class="st82" points="157.2,185.3 143,193.5 143,196 157.2,187.8 		"/>
		
			<linearGradient id="SVGID_49_" gradientUnits="userSpaceOnUse" x1="164.8099" y1="310.5801" x2="136.5999" y2="291.4601" gradientTransform="matrix(1 0 0 -1 0 496)">
			<stop  offset="0" style="stop-color:#FCFDFF;stop-opacity:0"/>
			<stop  offset="0.12" style="stop-color:#FCFAD7;stop-opacity:0.16"/>
			<stop  offset="0.37" style="stop-color:#FDF58C;stop-opacity:0.45"/>
			<stop  offset="0.59" style="stop-color:#FEF150;stop-opacity:0.69"/>
			<stop  offset="0.77" style="stop-color:#FFEE24;stop-opacity:0.86"/>
			<stop  offset="0.91" style="stop-color:#FFED0A;stop-opacity:0.96"/>
			<stop  offset="1" style="stop-color:#FFEC00"/>
		</linearGradient>
		<polygon class="st83" points="157.2,190 143,198.2 143,200.8 157.2,192.6 		"/>
		<path class="st17" d="M214,176.8l-71.3,41.2c-1.5,0.9-2.7-0.1-2.7-2l0,0c0-2,1-3.9,2.7-5.1l71.3-41.2c1.5-0.9,2.7,0.1,2.7,2l0,0
			C216.7,173.7,215.7,175.6,214,176.8z"/>
		
			<linearGradient id="SVGID_50_" gradientUnits="userSpaceOnUse" x1="195.1912" y1="329.6593" x2="119.1012" y2="195.8293" gradientTransform="matrix(1 0 0 -1 -48.71 470.67)">
			<stop  offset="0" style="stop-color:#E4F2FF"/>
			<stop  offset="0.2" style="stop-color:#DCEAFE;stop-opacity:0.78"/>
			<stop  offset="0.6" style="stop-color:#CBDBFC;stop-opacity:0.37"/>
			<stop  offset="0.87" style="stop-color:#C1D2FB;stop-opacity:0.1"/>
			<stop  offset="1" style="stop-color:#BDCEFA;stop-opacity:0"/>
		</linearGradient>
		<path class="st84" d="M139.8,229.8l-67.6,39c-2.1,1.2-3.8-0.1-3.8-2.9v-63.9c0-2.8,1.7-6.1,3.8-7.3l67.6-39.1
			c2.1-1.2,3.8,0.1,3.8,2.9v63.9C143.6,225.3,141.9,228.6,139.8,229.8z"/>
		<g>
			
				<linearGradient id="SVGID_51_" gradientUnits="userSpaceOnUse" x1="152.351" y1="336.4395" x2="98.491" y2="244.0094" gradientTransform="matrix(1 0 0 -1 0 496)">
				<stop  offset="0" style="stop-color:#E4F2FF"/>
				<stop  offset="6.000000e-02" style="stop-color:#E1EFFF"/>
				<stop  offset="0.65" style="stop-color:#C7D7FB"/>
				<stop  offset="1" style="stop-color:#BDCEFA"/>
			</linearGradient>
			<polygon class="st85" points="137.7,223.3 74.2,259.9 74.2,255.1 137.7,218.5 			"/>
			
				<linearGradient id="SVGID_52_" gradientUnits="userSpaceOnUse" x1="186.4775" y1="319.6015" x2="132.6175" y2="227.1715" gradientTransform="matrix(1 0 0 -1 -48.7145 470.6632)">
				<stop  offset="0" style="stop-color:#E4F2FF"/>
				<stop  offset="6.000000e-02" style="stop-color:#E1EFFF"/>
				<stop  offset="0.65" style="stop-color:#C7D7FB"/>
				<stop  offset="1" style="stop-color:#BDCEFA"/>
			</linearGradient>
			<path class="st86" d="M92.1,197.7c7.7-13.3,20.1-20.4,27.7-16s7.7,18.8,0,32s-20.1,20.4-27.7,16S84.4,210.9,92.1,197.7z"/>
		</g>
		
			<linearGradient id="SVGID_53_" gradientUnits="userSpaceOnUse" x1="328.765" y1="422.6976" x2="266.9749" y2="294.1276" gradientTransform="matrix(1 0 0 -1 -48.71 470.67)">
			<stop  offset="0" style="stop-color:#E4F2FF"/>
			<stop  offset="0.2" style="stop-color:#DCEAFE;stop-opacity:0.78"/>
			<stop  offset="0.6" style="stop-color:#CBDBFC;stop-opacity:0.37"/>
			<stop  offset="0.87" style="stop-color:#C1D2FB;stop-opacity:0.1"/>
			<stop  offset="1" style="stop-color:#BDCEFA;stop-opacity:0"/>
		</linearGradient>
		<path class="st87" d="M278.6,131.8l-67.6,39c-2.1,1.2-3.8-0.1-3.8-2.9v-49.9c0-2.8,1.7-6.1,3.8-7.3l67.6-39
			c2.1-1.2,3.8,0.1,3.8,2.9v49.9C282.4,127.3,280.7,130.6,278.6,131.8z"/>
		<g>
			
				<linearGradient id="SVGID_54_" gradientUnits="userSpaceOnUse" x1="292.4071" y1="398.7233" x2="210.0071" y2="325.9533" gradientTransform="matrix(1 0 0 -1 0 496)">
				<stop  offset="0" style="stop-color:#E4F2FF"/>
				<stop  offset="6.000000e-02" style="stop-color:#E1EFFF"/>
				<stop  offset="0.65" style="stop-color:#C7D7FB"/>
				<stop  offset="1" style="stop-color:#BDCEFA"/>
			</linearGradient>
			<polygon class="st88" points="276.5,123.4 213.1,160 213.1,155.3 276.5,118.6 			"/>
			
				<linearGradient id="SVGID_55_" gradientUnits="userSpaceOnUse" x1="287.5669" y1="404.1936" x2="205.1669" y2="331.4335" gradientTransform="matrix(1 0 0 -1 0 496)">
				<stop  offset="0" style="stop-color:#E4F2FF"/>
				<stop  offset="6.000000e-02" style="stop-color:#E1EFFF"/>
				<stop  offset="0.65" style="stop-color:#C7D7FB"/>
				<stop  offset="1" style="stop-color:#BDCEFA"/>
			</linearGradient>
			<polygon class="st89" points="276.5,113.6 213.1,150.3 213.1,145.5 276.5,108.9 			"/>
			
				<linearGradient id="SVGID_56_" gradientUnits="userSpaceOnUse" x1="274.8997" y1="418.5503" x2="192.4998" y2="345.7803" gradientTransform="matrix(1 0 0 -1 0 496)">
				<stop  offset="0" style="stop-color:#E4F2FF"/>
				<stop  offset="6.000000e-02" style="stop-color:#E1EFFF"/>
				<stop  offset="0.65" style="stop-color:#C7D7FB"/>
				<stop  offset="1" style="stop-color:#BDCEFA"/>
			</linearGradient>
			<polygon class="st90" points="231.4,128.3 214.4,138.1 214.4,118.5 231.4,108.6 			"/>
			
				<linearGradient id="SVGID_57_" gradientUnits="userSpaceOnUse" x1="278.2273" y1="414.7831" x2="195.8173" y2="342.0231" gradientTransform="matrix(1 0 0 -1 0 496)">
				<stop  offset="0" style="stop-color:#E4F2FF"/>
				<stop  offset="6.000000e-02" style="stop-color:#E1EFFF"/>
				<stop  offset="0.65" style="stop-color:#C7D7FB"/>
				<stop  offset="1" style="stop-color:#BDCEFA"/>
			</linearGradient>
			<polygon class="st91" points="253.3,115.7 236.3,125.5 236.3,105.8 253.3,96 			"/>
			
				<linearGradient id="SVGID_58_" gradientUnits="userSpaceOnUse" x1="281.5496" y1="411.0204" x2="199.1396" y2="338.2505" gradientTransform="matrix(1 0 0 -1 0 496)">
				<stop  offset="0" style="stop-color:#E4F2FF"/>
				<stop  offset="6.000000e-02" style="stop-color:#E1EFFF"/>
				<stop  offset="0.65" style="stop-color:#C7D7FB"/>
				<stop  offset="1" style="stop-color:#BDCEFA"/>
			</linearGradient>
			<polygon class="st92" points="275.3,103 258.2,112.8 258.2,93.2 275.3,83.3 			"/>
		</g>
		<path class="st40" d="M88.4,350l-36.3,21c-2.7,1.5-7.3,1.3-10.4-0.4L6.9,350.5c-3.1-1.8-3.4-4.5-0.7-6l36.3-21
			c2.7-1.5,7.3-1.3,10.4,0.4L87.7,344C90.7,345.8,91,348.5,88.4,350z"/>
		
			<linearGradient id="SVGID_59_" gradientUnits="userSpaceOnUse" x1="140.9099" y1="124.4751" x2="57.5099" y2="-43.6549" gradientTransform="matrix(1 0 0 -1 -48.71 470.67)">
			<stop  offset="0" style="stop-color:#E4F2FF"/>
			<stop  offset="6.000000e-02" style="stop-color:#E1EFFF"/>
			<stop  offset="0.65" style="stop-color:#C7D7FB"/>
			<stop  offset="1" style="stop-color:#BDCEFA"/>
		</linearGradient>
		<path class="st93" d="M90.1,413.9v-66.1l0,0c-0.2,0.9-0.9,1.7-1.7,2.1l-36.3,21c-1.5,0.8-3.1,1.1-4.8,1v67c1.7,0.1,3.3-0.2,4.8-1
			l36.3-21C89.6,416.5,90.3,415.2,90.1,413.9z"/>
		
			<linearGradient id="SVGID_60_" gradientUnits="userSpaceOnUse" x1="130.7571" y1="157.022" x2="55.1971" y2="49.9721" gradientTransform="matrix(1 0 0 -1 -48.71 470.67)">
			<stop  offset="0" style="stop-color:#E4F2FF"/>
			<stop  offset="6.000000e-02" style="stop-color:#E1EFFF"/>
			<stop  offset="0.65" style="stop-color:#C7D7FB"/>
			<stop  offset="1" style="stop-color:#BDCEFA"/>
		</linearGradient>
		<path class="st94" d="M41.7,370.5L6.9,350.4c-1.2-0.6-2.1-1.6-2.5-2.9v66.1c-0.3,1.3,0.6,2.8,2.5,3.9l34.8,20.1
			c1.7,0.9,3.6,1.4,5.6,1.4v-67C45.4,371.9,43.4,371.4,41.7,370.5z"/>
		<ellipse transform="matrix(0.866 -0.5 0.5 0.866 -158.6984 62.6498)" class="st95" cx="37.6" cy="327.5" rx="19.9" ry="34.5"/>
		<ellipse transform="matrix(0.866 -0.5 0.5 0.866 -158.6984 62.6498)" class="st96" cx="37.6" cy="327.5" rx="17.9" ry="31"/>
		<path class="st97" d="M50.2,292c-6.8-3.9-12.9-4.3-17.3-1.7l-12.5,7.2l0,0c4.4-2.5,10.5-2.1,17.2,1.7
			c13.4,7.8,24.4,26.7,24.4,42.2c0,7.7-2.7,13.2-7.1,15.7l0,0l12.5-7.2c4.4-2.5,7.2-8,7.2-15.8C74.6,318.7,63.7,299.8,50.2,292z"/>
		<path class="st17" d="M31.4,332.2c1.1,0.1,2.2,0.3,3.3,0.6L35,333c0.7,0.3,1.4,0.5,2,0.9v-6.1l-6.6-3.8
			C30.5,326.7,30.8,329.5,31.4,332.2z"/>
		<path class="st17" d="M44.3,321.7h0.4H45c0.8-0.1,1.5-0.2,2.2-0.5c-1.6-2.6-3.5-5.1-5.8-7.1c0.7,1.4,1.4,2.8,1.9,4.2
			C43.7,319.4,44,320.5,44.3,321.7z"/>
		<path class="st17" d="M35.8,310.3c-1.2,0-2.3,0.8-3.3,2.4c-0.3,0.6-0.6,1.2-0.8,1.9c1,1.1,2,2.1,3.1,3l0.3,0.3
			c0.6,0.5,1.2,0.9,1.9,1.4v-8.3h-0.1C36.5,310.7,36.2,310.5,35.8,310.3z"/>
		<path class="st17" d="M34.8,334.1c-1-0.3-2-0.5-3.1-0.6c0.3,1,0.5,1.9,0.8,2.9c0.7,2.2,1.8,4.3,3.3,6.2c0.4,0.3,0.7,0.5,1.1,0.7
			l0.1,0.1v-8.3c-0.6-0.3-1.2-0.6-1.9-0.8L34.8,334.1z"/>
		<path class="st17" d="M34.6,318.7c-1.2-1-2.2-2-3.2-3.1c-0.6,2.3-1,4.8-1,7.2l6.6,3.8v-6.1c-0.7-0.5-1.4-0.9-2-1.5L34.6,318.7z"/>
		<path class="st17" d="M30.6,314.7c-0.2-0.2-0.3-0.4-0.5-0.6l-0.3-0.4c-0.8-1.1-1.6-2.2-2.3-3.3c-2.5,1.5-3.9,4.5-4,8.5l6.1,3.5
			C29.6,319.7,29.9,317.2,30.6,314.7z"/>
		<path class="st17" d="M30.9,333.6h-0.4l-0.3,0.1c-0.7,0.1-1.4,0.3-2.1,0.6c1.5,2.4,3.4,4.7,5.5,6.6c-0.7-1.4-1.4-2.8-1.9-4.2
			C31.5,335.7,31.2,334.7,30.9,333.6z"/>
		<path class="st17" d="M30.1,332.3l0.5,0c-0.6-2.9-1-5.8-1-8.8l-6.1-3.5c0.3,4.6,1.7,9,4,13c0.7-0.3,1.5-0.6,2.3-0.7L30.1,332.3z"
			/>
		<path class="st17" d="M30.6,313.2l0.4,0.5c0.2-0.7,0.6-1.4,0.9-2c0.5-0.8,1.1-1.5,1.9-2.1c-1.8-0.5-3.7-0.4-5.5,0.3
			c0.6,1,1.3,2,2.1,3L30.6,313.2z"/>
		<path class="st17" d="M44.6,340c0.2,0.2,0.4,0.5,0.6,0.7l0.3,0.4c0.9,1.1,1.7,2.3,2.5,3.5c2.2-1.5,3.6-4.3,3.7-8.3l-6.1-3.5
			C45.5,335.1,45.2,337.6,44.6,340z"/>
		<path class="st17" d="M40.3,320.9c1,0.4,2.1,0.6,3.2,0.8c-0.3-1.1-0.6-2.2-0.9-3.2c-0.7-2.2-1.8-4.3-3.2-6.2
			c-0.4-0.3-0.7-0.5-1.1-0.7l-0.2-0.1v8.4c0.6,0.4,1.3,0.7,1.9,1L40.3,320.9z"/>
		<path class="st17" d="M44.7,341.4l-0.4-0.5c-0.3,0.8-0.6,1.5-1,2.3c-0.5,0.8-1.1,1.5-1.9,2.1c1.9,0.6,4,0.4,5.8-0.4
			c-0.7-1.1-1.4-2.1-2.3-3.1L44.7,341.4z"/>
		<path class="st17" d="M45.4,323h-0.3h-0.5c0.6,2.8,0.9,5.6,1,8.4l6.1,3.5c-0.3-4.4-1.5-8.7-3.7-12.5C47.2,322.7,46.3,323,45.4,323
			z"/>
		<path class="st17" d="M43.8,323c-1.1-0.1-2.3-0.4-3.3-0.8l-0.3-0.1c-0.7-0.3-1.4-0.6-2.1-1v6.1l6.6,3.8
			C44.6,328.3,44.3,325.6,43.8,323z"/>
		<path class="st17" d="M40.5,336.1c1.2,0.9,2.3,1.9,3.3,3c0.6-2.3,0.9-4.6,0.9-6.9l-6.6-3.8v6.1c0.7,0.4,1.4,0.9,2.1,1.4
			L40.5,336.1z"/>
		<path class="st17" d="M43.5,340.1c-1-1.1-2-2-3.2-2.9c-0.1-0.1-0.2-0.2-0.3-0.2c-0.6-0.5-1.3-0.9-2-1.3v8.4l0.2,0.1
			c0.4,0.2,0.7,0.4,1.1,0.5c1.2,0,2.3-0.8,3.3-2.4C42.9,341.5,43.2,340.8,43.5,340.1z"/>
		<path class="st98" d="M312.3,311.9c-0.3,0.1-0.4,0.5-0.5,1c0,0.2,1.6-0.9,1.5-0.4c0,0.1-1.1,7.8,1.3,10.3c0.2,0.2,0.6,0.3,0.9,0.1
			l0.7-0.4c0.8-0.4,1.3-2.1,2-4.8c0.8-2.9,1.2-4.7-2-6.6c-0.9-0.5-1.4-0.7-1.7-0.5L312.3,311.9z"/>
		<path class="st99" d="M318.2,317.8c-0.9,3.5-1.5,5.5-2.9,4.7s-1.6-3.7-1.2-7.1c0.4-3-1.1-6.1,2.1-4.2S319,314.9,318.2,317.8z"/>
		<path class="st100" d="M338.8,295.4l-6.5,2.4l-2.7,3c-3.1,1.4-6,3.4-8.4,5.9c0,0-1.4,2.1-6.1,4.5c0,0,0,3.3,2.9,3.8l18.7-10.8
			c1.3-0.7,2.2-2.1,2.3-3.6C339.1,298.9,339.1,297.1,338.8,295.4z"/>
		<path class="st101" d="M325,328.4c0,0.3,0.2,0.6,0.7,0.9c0.1,0.1,0-1.8,0.4-1.5c0.1,0.1,6.2,4.8,9.6,4c0.3-0.1,0.5-0.4,0.5-0.7
			v-0.8c0-0.9-1.2-2.2-3.2-4.1c-2.1-2.1-3.5-3.4-6.7-1.5c-0.9,0.5-1.3,0.9-1.3,1.3L325,328.4z"/>
		<path class="st99" d="M333.1,326.2c2.6,2.5,4,4,2.7,4.8s-4-0.4-6.7-2.5c-2.4-1.8-5.9-2-2.7-3.9S330.9,324.1,333.1,326.2z"/>
		<path class="st102" d="M330.5,325l-0.2-23.3l-6.4,2l-0.1,4.3c-0.3,3.4,0,6.9,1,10.2c0,0,1.1,2.2,0.9,7.5
			C325.7,325.7,328.6,327.3,330.5,325z"/>
		<path class="st100" d="M347.7,292.3L347.7,292.3c-1.3,0.6-2.8,0-3.3-1.3c0,0,0,0,0,0l-10-22.1c-0.6-1.3,0-2.8,1.3-3.4l0,0
			c1.3-0.6,2.8,0,3.3,1.3c0,0,0,0,0,0l10,22.1C349.5,290.2,349,291.7,347.7,292.3z"/>
		
			<linearGradient id="SVGID_61_" gradientUnits="userSpaceOnUse" x1="350.6904" y1="213.231" x2="331.4204" y2="220.7509" gradientTransform="matrix(1 0 0 -1 0 496)">
			<stop  offset="0" style="stop-color:#E8E9FF"/>
			<stop  offset="1" style="stop-color:#C0C0F6"/>
		</linearGradient>
		<polygon class="st103" points="348.7,289.8 333,280.7 333,268.1 348.7,277.1 		"/>
		<polygon class="st104" points="344.8,286.4 344.8,276.8 345.2,277 345.2,286.6 		"/>
		<polygon class="st104" points="344.1,283.1 344.1,276.3 344.4,276.5 344.4,283.3 		"/>
		<polygon class="st104" points="343.3,284.8 343.3,275.9 343.6,276.1 343.6,284.9 		"/>
		<polygon class="st104" points="342.5,285 342.5,275.5 342.9,275.6 342.9,285.3 		"/>
		<polygon class="st104" points="341.8,278.5 341.8,275 342.1,275.2 342.1,278.7 		"/>
		<path class="st53" d="M319.8,296.2v8.6c0,0,10.1,3.4,19.6-8.6v-8.3L319.8,296.2z"/>
		<path class="st105" d="M324.4,298.9c0.1,0.1,0.2,0.1,0.3,0.1c1.7,0.1,7.8-1.2,13.9-8.1c0.5-0.5,0.8-1.3,0.8-2v-19.4
			c0.1-1.2-0.4-2.3-1.4-3l-4.6-2.7c-1.1-0.5-2.3-0.4-3.3,0.3l-6.2,3.6c-2.7,1.8-4.4,4.7-4.6,7.9v19.6c0,0.4,0.1,0.7,0.4,0.9
			L324.4,298.9z"/>
		<path class="st106" d="M326.2,269c0,0.6,0.4,1.1,1,1.3c1.4,0.7,3.1,0.7,4.6,0c0.5-0.2,0.9-0.8,1-1.3v-4.3c0-0.6-0.4-1.1-1-1.3
			c-1.4-0.7-3.1-0.7-4.6,0c-0.5,0.2-0.9,0.8-1,1.3V269z"/>
		<path class="st107" d="M308.9,296.8L308.9,296.8c-1.2-0.6-1.7-2.2-1.1-3.4l11-21.8c0.6-1.2,2.1-1.7,3.4-1.1c0,0,0,0,0,0l0,0
			c1.2,0.6,1.7,2.1,1.1,3.4c0,0,0,0,0,0l-11,21.8C311.7,296.9,310.2,297.4,308.9,296.8z"/>
		<path class="st108" d="M337.6,255.5l3.2,12.4c0.2,0.8-0.2,1.6-1,1.8c-0.3,0.1-0.6,0.1-0.9-0.1l-7.4-3.1c-0.6-0.3-1-0.9-0.9-1.6
			l2.4-12.2c0.1-0.8,0.9-1.3,1.7-1.1c0.4,0.1,0.8,0.3,1,0.7l1.8,2.9C337.5,255.3,337.6,255.4,337.6,255.5z"/>
		<path class="st107" d="M326.4,262.9c0,1.1-0.8,1.5-1.7,1c-1-0.6-1.6-1.7-1.7-2.9c0-1.1,0.8-1.5,1.7-1
			C325.7,260.7,326.4,261.8,326.4,262.9z"/>
		<circle class="st107" cx="329.4" cy="257.9" r="8.9"/>
		<path class="st108" d="M320.7,259.1c0,0,7.5,4.1,11.2-6.6c0,0,2,4.5,6.8,3.5c0,0,0-7-7.3-8.4C331.5,247.6,318.6,246.3,320.7,259.1
			z"/>
		<path class="st108" d="M324.9,259.4l3.2,12.4c0.2,0.8-0.2,1.6-1,1.8c-0.3,0.1-0.7,0.1-1-0.1l-7.3-3c-0.6-0.3-1-0.9-0.9-1.6
			l2.4-12.2c0.2-0.8,0.9-1.3,1.7-1.1c0.4,0.1,0.7,0.3,0.9,0.7l1.8,2.9C324.8,259.2,324.8,259.3,324.9,259.4z"/>
		<path d="M253.9,297.4c-0.1,1,1.5,2.5,3.9,3.9c3.2,1.8,4.3,4.1,8.2,1.9c1.1-0.6,1.6-1.2,1.6-1.6v-2.4c0.1-1.1-2.6-1.8-4.9-3.1
			c-3.2-1.8-6.6-2.8-8.2-1.9c-0.4,0.2-0.6,0.5-0.6,0.9V297.4z"/>
		<path class="st101" d="M257.8,298.9c-3.2-1.8-4.9-3.8-3.3-4.7s5,0.1,8.2,1.9s7.2,2.5,3.3,4.7S260.9,300.7,257.8,298.9z"/>
		<path d="M262.7,291.4c-0.1,1,1.5,2.5,3.9,3.9c3.2,1.8,4.3,4.1,8.2,1.9c1.1-0.6,1.6-1.2,1.6-1.6v-2.4c0.1-1.1-2.6-1.8-4.9-3.1
			c-3.2-1.8-6.6-2.8-8.2-1.9c-0.4,0.2-0.6,0.5-0.6,0.9L262.7,291.4z"/>
		<path class="st101" d="M266.6,292.8c-3.2-1.8-4.9-3.8-3.3-4.7s5,0,8.2,1.9s7.2,2.5,3.3,4.7S269.7,294.6,266.6,292.8z"/>
		<path class="st109" d="M259.2,218.7L259.2,218.7c1.2-0.8,2.8-0.4,3.6,0.8l10.8,17.2c0.8,1.2,0.4,2.8-0.8,3.6l0,0
			c-1.2,0.8-2.8,0.4-3.6-0.8l-10.8-17.2C257.6,221,258,219.4,259.2,218.7z"/>
		<path class="st110" d="M266.3,237.5l3.5,5.5c1.2,1.9,3.6,2.5,5.5,1.3c0,0,0,0,0,0l0,0c1.9-1.2,2.5-3.6,1.3-5.5c0,0,0,0,0,0
			l-3.5-5.5C273.1,233.2,268.7,231.6,266.3,237.5z"/>
		<path class="st111" d="M267.5,298c0.1-0.2,0.2-0.5,0.2-0.8v-27.2c0-1.7-1.8-3.1-3.9-3.1l0,0c-2.2,0-3.9,1.4-3.9,3.1v29.6
			c0,0.4,0.3,0.8,0.7,1C262,301,265.6,301.7,267.5,298z"/>
		<path class="st111" d="M276.3,291.7c0.1-0.2,0.2-0.5,0.2-0.8l-0.6-27.2c0-1.7-1.8-3.1-4-3l0,0c-2.2,0-3.9,1.5-3.9,3.2l0.6,29.5
			c0,0.4,0.3,0.8,0.7,0.9C270.9,294.8,274.5,295.4,276.3,291.7z"/>
		<path class="st112" d="M261.1,275c0.1,0.1,0.2,0.1,0.3,0.1c1.7,0.1,8-1.2,14.3-8.3c0.5-0.5,0.8-1.3,0.9-2v-20
			c0.1-1.2-0.4-2.4-1.4-3l-4.7-2.8c-1.1-0.5-2.4-0.4-3.4,0.3l-6.4,3.7c-2.8,1.8-4.5,4.9-4.7,8.2v20.1c-0.1,0.4,0.1,0.8,0.5,1
			L261.1,275z"/>
		<path class="st102" d="M262.9,244.2c0.1,0.6,0.4,1.1,1,1.4c1.5,0.8,3.2,0.8,4.7,0c0.6-0.2,0.9-0.8,1-1.4v-4.4
			c-0.1-0.6-0.4-1.1-1-1.4c-1.5-0.8-3.2-0.8-4.7,0c-0.6,0.2-0.9,0.8-1,1.4V244.2z"/>
		<circle class="st109" cx="266.2" cy="232.9" r="9.1"/>
		<path class="st109" d="M250.4,273.3L250.4,273.3c-1.4-0.5-2.1-1.9-1.6-3.3l6.9-18.6c0.5-1.4,1.9-2.1,3.3-1.6c0,0,0,0,0,0l0,0
			c1.4,0.5,2.1,1.9,1.6,3.3l-6.9,18.6C253.2,273,251.8,273.8,250.4,273.3z"/>
		<path class="st110" d="M260.9,256.6l2.1-6.2c0.7-2.1-0.4-4.4-2.5-5.1c0,0,0,0,0,0l0,0c-2.1-0.7-4.4,0.4-5.1,2.5c0,0,0,0,0,0
			l-2.1,6.2C253.3,254,254.7,258.4,260.9,256.6z"/>
		<path class="st113" d="M271.4,241.2c-2.9,1.7-5.1,0.4-5.9-0.8c-2-3.1-2.3-1-3.5-2.5c-1.5-2.5-1.2-6-3.3-7.6
			c-3.1-2.3-2.2-6.9,5.8-8.9c10.7-2.7,15,10.8,8.3,18.6C272.4,240.6,271.9,241,271.4,241.2z"/>
		<path class="st109" d="M263,238.3c-0.2,0.5-0.8,0.7-1.3,0.5c-0.4-0.2-0.6-0.6-0.6-1c-0.2-1.2,0.1-2.4,0.9-3.3
			c0.8-0.8,1.6-0.5,1.9,0.5C264.2,236.2,263.8,237.4,263,238.3z"/>
		<path class="st109" d="M216.5,346.1L216.5,346.1c-1,0.7-2.5,0.5-3.2-0.5c0,0,0,0,0,0l-10.4-14.7c-0.7-1-0.5-2.5,0.5-3.2
			c0,0,0,0,0,0l0,0c1-0.7,2.5-0.5,3.2,0.5l10.4,14.7C217.8,344,217.5,345.4,216.5,346.1C216.5,346.1,216.5,346.1,216.5,346.1z"/>
		<path class="st1" d="M209.3,329.8l-3.4-4.7c-1.1-1.6-3.4-2-5-0.9c0,0,0,0,0,0l0,0c-1.6,1.1-2,3.4-0.9,5c0,0,0,0,0,0l3.4,4.7
			C203.4,334,207.4,335.2,209.3,329.8z"/>
		<path class="st112" d="M197.6,348.7c0.1,0.2,0.3,0.4,0.5,0.5l12.2,6.9c1.3,0.8,3.2,0,4.1-1.6l0,0c1-1.7,0.6-3.6-0.7-4.4l-14-8
			c-0.3-0.2-0.7-0.1-1,0.1C197.7,343.1,195.6,345.6,197.6,348.7z"/>
		<path class="st112" d="M189.6,352.8c0.1,0.2,0.3,0.4,0.5,0.5l12.1,6.9c1.3,0.8,3.2,0,4.1-1.6l0,0c1-1.7,0.6-3.6-0.7-4.4l-14-8
			c-0.3-0.2-0.7-0.1-1,0.1C189.7,347.2,187.6,349.7,189.6,352.8z"/>
		<path class="st98" d="M208.6,373.7c-0.1,1,2.3,1.6,4.3,2.8c2.8,1.6,5.8,2.5,7.3,1.7c0.3-0.2,0.5-0.4,0.5-0.8v-1.7
			c0-0.9-1.3-2.4-3.5-4.4c-2.3-2.3-3.8-3.7-7.3-1.7c-1,0.6-1.4,1-1.4,1.4L208.6,373.7z"/>
		<path class="st114" d="M217.3,371.3c2.8,2.7,4.3,4.4,2.9,5.2s-4.3-0.4-7.3-2.6c-2.6-2-6.4-2.2-2.9-4.2
			C213.5,367.6,214.9,369,217.3,371.3z"/>
		<path class="st112" d="M215,369.3c0.1-0.2,0.2-0.5,0.2-0.7v-16.2c0-1.5-1.6-2.8-3.5-2.8l0,0c-1.9,0-3.5,1.2-3.5,2.8v18.3
			c0,0.4,0.2,0.7,0.6,0.8C210.1,371.9,213.3,372.5,215,369.3z"/>
		<path class="st115" d="M190.8,354.2c0.1,0.1,0.2,0.1,0.3,0.1c1.5,0.1,7.1-1.1,12.6-7.3c0.4-0.5,0.7-1.1,0.8-1.8v-17.7
			c0.1-1.1-0.4-2.1-1.3-2.7l-4.2-2.4c-1-0.5-2.1-0.4-3,0.3l-5.7,3.3c-2.5,1.6-4,4.3-4.2,7.2v17.9c0,0.3,0.1,0.7,0.4,0.9L190.8,354.2
			z"/>
		<path class="st98" d="M200.2,377.3c-0.1,1,2.3,1.6,4.3,2.8c2.8,1.6,5.8,2.5,7.3,1.7c0.3-0.1,0.5-0.4,0.5-0.8v-1.6
			c0-0.9-1.3-2.4-3.4-4.4c-2.3-2.3-3.8-3.7-7.3-1.7c-1,0.6-1.4,1-1.4,1.4L200.2,377.3z"/>
		<path class="st114" d="M208.9,374.9c2.8,2.7,4.3,4.4,2.9,5.2s-4.3-0.4-7.3-2.7c-2.6-2-6.4-2.2-2.9-4.2S206.6,372.7,208.9,374.9z"
			/>
		<path class="st112" d="M206.7,373c0.1-0.2,0.2-0.5,0.2-0.7V356c0-1.5-1.6-2.8-3.5-2.8l0,0c-1.9,0-3.5,1.3-3.5,2.8v18.3
			c0,0.4,0.3,0.7,0.6,0.8C201.8,375.6,205,376.2,206.7,373z"/>
		<path class="st102" d="M191.4,326.9c0,0.5,0.4,1,0.9,1.2c1.3,0.7,2.9,0.7,4.2,0c0.5-0.2,0.8-0.7,0.9-1.2v-3.9c0-0.5-0.4-1-0.9-1.2
			c-1.3-0.7-2.9-0.7-4.2,0c-0.5,0.2-0.8,0.7-0.9,1.2V326.9z"/>
		<circle class="st109" cx="194.4" cy="316.9" r="8.1"/>
		<path class="st116" d="M190,323.2c0.8-0.7,1.3-1.7,1.7-2.7c0-0.1,0-0.1,0-0.2v-3.9c0-0.8,0.2-1.5,0.6-2.2c0.3-0.6,0.9-1,1.6-1
			c0,0,6.5,2.8,8.9-2.5c0.2-0.4,0-0.8-0.3-1c0,0-0.1,0-0.1,0c-0.5-0.1-1.1-0.5-1.8-1.6c-0.2-0.3-0.5-0.4-0.8-0.3
			c-1.1,0.2-2.2-0.2-2.9-1.1c-0.1-0.2-0.3-0.2-0.5-0.2c-1.2,0-5.5,0.2-7.9,1.9l0,0c-0.5,0.4-8.5,7.3,0.6,14.8
			C189.3,323.5,189.7,323.5,190,323.2z"/>
		<path class="st109" d="M191.6,321.4c0,1-0.7,1.4-1.5,0.9c-0.9-0.6-1.5-1.6-1.5-2.6c0-1,0.7-1.4,1.5-0.9
			C191,319.4,191.6,320.4,191.6,321.4z"/>
		<polygon class="st117" points="214.6,349.1 200.2,357.4 189.1,351.4 203.9,342.9 		"/>
		<polygon class="st118" points="214.6,349.1 216.9,334.6 200.9,343.9 200.2,357.4 		"/>
		<path class="st109" d="M202,351.6L202,351.6c-1,0.7-2.5,0.5-3.2-0.5c0,0,0,0,0,0l-10.5-14.7c-0.7-1-0.5-2.5,0.5-3.2l0,0
			c1-0.7,2.5-0.5,3.2,0.5l10.4,14.7C203.3,349.4,203,350.9,202,351.6C202,351.6,202,351.6,202,351.6z"/>
		<path class="st1" d="M194.3,335.9l-2.9-5c-1-1.7-3.2-2.3-4.9-1.3l0,0c-1.7,1-2.3,3.2-1.3,4.9l2.9,5
			C188.2,339.5,192,341.1,194.3,335.9z"/>
		<path class="st107" d="M408.2,300.8L408.2,300.8c1.3,0.2,2.6-0.7,2.8-2c0,0,0,0,0,0l1.8-9.9c0.2-1.3-0.7-2.6-2-2.8c0,0,0,0,0,0
			l0,0c-1.3-0.2-2.6,0.7-2.8,2c0,0,0,0,0,0l-1.7,9.9C406.1,299.3,406.9,300.5,408.2,300.8z"/>
		<path class="st119" d="M406.2,290.7l1.1-6c0.4-2,2.3-3.4,4.4-3l0,0c2,0.4,3.4,2.3,3,4.4l-1.1,6C413.6,292.1,410.4,295,406.2,290.7
			z"/>
		<path class="st107" d="M397.3,301.7L397.3,301.7c0.4,1.3,1.8,2,3.1,1.6l8.4-2.5c1.3-0.1,2.4-1.2,2.3-2.6l0,0
			c-0.1-1.3-1.2-2.4-2.6-2.3l-9.6,2.7C397.6,299,396.9,300.4,397.3,301.7z"/>
		<path class="st98" d="M423.5,340.4c0.1,1.1-2.4,1.7-4.6,3c-3,1.7-6.2,2.6-7.7,1.8c-0.3-0.2-0.6-0.5-0.6-0.8v-1.8
			c-0.1-1,1.4-2.5,3.6-4.7c2.5-2.4,4-3.9,7.7-1.8c1,0.6,1.5,1.1,1.5,1.5L423.5,340.4z"/>
		<path class="st114" d="M414.3,337.8c-3,2.9-4.6,4.6-3.1,5.5s4.6-0.5,7.7-2.8c2.7-2.1,6.7-2.3,3.1-4.4S416.8,335.4,414.3,337.8z"/>
		<path class="st120" d="M416.7,335.7c-0.1-0.2-0.2-0.5-0.2-0.7v-25.5c0-1.6,1.7-2.9,3.7-2.9l0,0c2,0,3.7,1.3,3.7,2.9v27.7
			c0,0.4-0.3,0.8-0.7,0.9C421.8,338.5,418.5,339.2,416.7,335.7z"/>
		<path class="st98" d="M415.5,334.5c0.1,1.1-2.4,1.7-4.6,3c-3,1.7-6.2,2.6-7.7,1.8c-0.3-0.2-0.6-0.5-0.6-0.8v-1.7
			c0-1,1.4-2.5,3.6-4.7c2.5-2.4,4-3.9,7.7-1.8c1,0.6,1.5,1.1,1.5,1.4L415.5,334.5z"/>
		<path class="st114" d="M406.3,331.9c-3,2.9-4.6,4.6-3.1,5.5s4.6-0.5,7.7-2.8c2.7-2.1,6.7-2.3,3.1-4.4S408.8,329.5,406.3,331.9z"/>
		<path class="st121" d="M408.7,329.8c-0.1-0.2-0.2-0.5-0.2-0.7v-25.4c0-1.6,1.7-2.9,3.7-2.9l0,0c2,0,3.7,1.3,3.7,2.9v27.7
			c0,0.4-0.3,0.8-0.7,0.9C413.9,332.7,410.5,333.3,408.7,329.8z"/>
		<path class="st122" d="M422.7,314.1c-0.1,0.1-0.2,0.1-0.3,0.1c-1.6,0.1-7.5-1.1-13.4-7.8c-0.5-0.5-0.8-1.2-0.8-1.9v-18.8
			c-0.1-1.1,0.4-2.2,1.3-2.9l4.4-2.6c1-0.5,2.2-0.4,3.1,0.3l6,3.5c2.6,1.7,4.2,4.6,4.4,7.7v18.9c0,0.4-0.1,0.7-0.4,0.9L422.7,314.1z
			"/>
		<path class="st123" d="M421,285.3c0,0.6-0.4,1.1-0.9,1.3c-1.4,0.7-3,0.7-4.4,0c-0.5-0.2-0.9-0.7-0.9-1.3v-4.1
			c0-0.6,0.4-1.1,0.9-1.3c1.4-0.7,3-0.7,4.4,0c0.5,0.2,0.9,0.7,0.9,1.3V285.3z"/>
		<circle class="st109" cx="417.9" cy="274.6" r="8.6"/>
		<path class="st124" d="M425,264.5c7.3,2.5,3.7,13.2-1.6,17.1c-2.6-1.4,0.6-4-3-2.2c-0.7-3.4,0.9-2.4-0.1-6.7
			c-3.7,1.9-11-0.4-12.1-4c1.3-0.6,2.6-4.3,5.7-5.6C417.8,261.3,422.8,262.1,425,264.5z"/>
		<path class="st109" d="M420.7,279.5c0,1,0.7,1.4,1.6,0.9c0.9-0.6,1.5-1.6,1.6-2.8c0-1-0.7-1.4-1.6-0.9
			C421.4,277.3,420.8,278.3,420.7,279.5z"/>
		<polygon class="st125" points="423.9,301.6 410.5,309.4 397.1,301.6 397.1,295.8 410.5,288 423.9,295.8 		"/>
		<polygon class="st126" points="410.5,288 423.9,295.8 410.5,303.3 397.1,295.8 		"/>
		<path class="st107" d="M423.5,306.7L423.5,306.7c1.3,0.2,2.6-0.7,2.8-2c0,0,0,0,0,0l1.4-10c0.2-1.3-0.7-2.6-2.1-2.8l0,0
			c-1.3-0.2-2.6,0.7-2.8,2.1l-1.4,10C421.3,305.3,422.2,306.5,423.5,306.7z"/>
		<path class="st119" d="M421.1,296.8l0.9-6.1c0.3-2.1,2.2-3.5,4.3-3.2l0,0c2.1,0.3,3.5,2.2,3.2,4.3l-0.9,6.1
			C428.6,297.8,425.5,300.9,421.1,296.8z"/>
		<path class="st107" d="M410,309L410,309c0.4,1.3,1.8,1.9,3.1,1.5l11-3.8c1.3-0.1,2.3-1.3,2.2-2.7l0,0c-0.1-1.3-1.3-2.3-2.7-2.2
			l-12.1,4C410.2,306.3,409.6,307.7,410,309C410,309,410,309,410,309z"/>
	</g>
</g>
</svg>
